<svg width="250" height="81" viewBox="0 0 250 81" fill="none" xmlns="http://www.w3.org/2000/svg">
<path d="M23.6 73.8C20.5333 73.8 17.5667 73.3667 14.7 72.5C11.8333 71.6333 9.03333 70.1667 6.3 68.1C5.96667 67.8333 5.73333 67.5 5.6 67.1C5.53333 66.7 5.53333 66.3 5.6 65.9C5.73333 65.5 5.93333 65.1667 6.2 64.9C6.53333 64.5667 6.9 64.4 7.3 64.4C7.76667 64.4 8.23333 64.5667 8.7 64.9C11.2333 66.7667 13.7667 68.0667 16.3 68.8C18.8333 69.5333 21.3667 69.9 23.9 69.9C28.2333 69.9 31.5333 69.0667 33.8 67.4C36.1333 65.7333 37.3 63.4667 37.3 60.6C37.3 58.3333 36.5333 56.5667 35 55.3C33.5333 53.9667 31.1333 52.9 27.8 52.1L19.5 50.1C15.3 49.1 12.2 47.5667 10.2 45.5C8.26667 43.4333 7.3 40.7667 7.3 37.5C7.3 34.7667 8 32.3667 9.4 30.3C10.8667 28.2333 12.9 26.6333 15.5 25.5C18.1667 24.3667 21.2333 23.8 24.7 23.8C27.6333 23.8 30.4333 24.2667 33.1 25.2C35.8333 26.1333 38.1333 27.5333 40 29.4C40.4 29.8 40.6333 30.2333 40.7 30.7C40.8333 31.1 40.8333 31.5 40.7 31.9C40.5667 32.3 40.3333 32.6 40 32.8C39.6667 33 39.2667 33.1 38.8 33.1C38.4 33.0333 37.9667 32.8 37.5 32.4C35.6333 30.8 33.6 29.6333 31.4 28.9C29.2 28.1 26.9333 27.7 24.6 27.7C20.5333 27.7 17.3667 28.6 15.1 30.4C12.8333 32.1333 11.7 34.4667 11.7 37.4C11.7 39.6667 12.4 41.5 13.8 42.9C15.2 44.3 17.4333 45.3667 20.5 46.1L28.8 48.1C33.1333 49.1667 36.3667 50.6667 38.5 52.6C40.6333 54.5333 41.7 57.1333 41.7 60.4C41.7 64.4667 40.0667 67.7333 36.8 70.2C33.5333 72.6 29.1333 73.8 23.6 73.8Z" fill="#3F403F"/>
<path d="M138 74.8C133.333 74.8 129.367 73.6 126.1 71.2C122.9 68.7333 120.733 65.4667 119.6 61.4H120.7V72.4C120.7 73.0667 120.5 73.6 120.1 74C119.767 74.4 119.267 74.6 118.6 74.6C117.933 74.6 117.4 74.4 117 74C116.667 73.6 116.5 73.0667 116.5 72.4V5.1C116.5 4.36666 116.667 3.83333 117 3.5C117.4 3.1 117.933 2.9 118.6 2.9C119.267 2.9 119.767 3.1 120.1 3.5C120.5 3.83333 120.7 4.36666 120.7 5.1V38.2H119.6C120.733 34.0667 122.9 30.8 126.1 28.4C129.367 26 133.333 24.8 138 24.8C142.4 24.8 146.2 25.8333 149.4 27.9C152.667 29.9 155.167 32.7667 156.9 36.5C158.633 40.2333 159.5 44.6667 159.5 49.8C159.5 54.8667 158.6 59.3 156.8 63.1C155.067 66.8333 152.6 69.7333 149.4 71.8C146.2 73.8 142.4 74.8 138 74.8ZM137.9 70.9C141.433 70.9 144.5 70.0667 147.1 68.4C149.7 66.7333 151.7 64.3333 153.1 61.2C154.5 58 155.2 54.2 155.2 49.8C155.2 43.1333 153.633 37.9667 150.5 34.3C147.433 30.5667 143.233 28.7 137.9 28.7C134.367 28.7 131.3 29.5333 128.7 31.2C126.1 32.8667 124.1 35.2667 122.7 38.4C121.3 41.5333 120.6 45.3333 120.6 49.8C120.6 56.4667 122.167 61.6667 125.3 65.4C128.433 69.0667 132.633 70.9 137.9 70.9ZM175.436 74.6C174.769 74.6 174.236 74.4 173.836 74C173.503 73.6 173.336 73.0667 173.336 72.4V27.2C173.336 26.4667 173.503 25.9333 173.836 25.6C174.236 25.2 174.769 25 175.436 25C176.103 25 176.603 25.2 176.936 25.6C177.269 25.9333 177.436 26.4667 177.436 27.2V36.9H176.436C177.703 32.9667 179.936 29.9333 183.136 27.8C186.403 25.6667 190.169 24.6 194.436 24.6C195.036 24.6 195.536 24.7333 195.936 25C196.403 25.2 196.636 25.6333 196.636 26.3C196.636 26.9667 196.469 27.5 196.136 27.9C195.803 28.2333 195.236 28.4333 194.436 28.5L193.236 28.6C188.303 29.0667 184.436 30.7333 181.636 33.6C178.903 36.4667 177.536 40.2667 177.536 45V72.4C177.536 73.0667 177.369 73.6 177.036 74C176.703 74.4 176.169 74.6 175.436 74.6ZM225.663 74.8C220.863 74.8 216.729 73.8 213.263 71.8C209.796 69.8 207.096 66.9667 205.163 63.3C203.296 59.5667 202.363 55.1333 202.363 50C202.363 44.9333 203.296 40.5333 205.163 36.8C207.096 33 209.729 30.0667 213.063 28C216.463 25.8667 220.363 24.8 224.763 24.8C227.896 24.8 230.663 25.3333 233.063 26.4C235.529 27.4667 237.596 29 239.263 31C240.996 33 242.296 35.4333 243.163 38.3C244.096 41.1667 244.563 44.4 244.563 48C244.563 48.8667 244.363 49.5333 243.963 50C243.629 50.4 243.096 50.6 242.363 50.6H205.063V46.9H242.363L240.663 48.1C240.663 44.0333 240.063 40.5667 238.863 37.7C237.663 34.7667 235.863 32.5333 233.463 31C231.129 29.4 228.196 28.6 224.663 28.6C220.796 28.6 217.496 29.5333 214.763 31.4C212.096 33.2 210.063 35.6667 208.663 38.8C207.329 41.9333 206.663 45.5 206.663 49.5V50C206.663 56.6667 208.296 61.8333 211.563 65.5C214.896 69.1 219.529 70.9 225.463 70.9C228.129 70.9 230.629 70.5667 232.963 69.9C235.296 69.1667 237.596 67.9 239.863 66.1C240.329 65.7 240.796 65.5 241.263 65.5C241.796 65.4333 242.229 65.5333 242.563 65.8C242.963 66 243.229 66.3 243.363 66.7C243.563 67.0333 243.596 67.4333 243.463 67.9C243.329 68.3667 242.996 68.8 242.463 69.2C240.396 70.9333 237.863 72.3 234.863 73.3C231.863 74.3 228.796 74.8 225.663 74.8Z" fill="#3F403F"/>
<circle cx="78" cy="49" r="25" fill="#008170"/>
</svg>
