<svg width="375" height="40" viewBox="0 0 375 40" fill="none" xmlns="http://www.w3.org/2000/svg">
<ellipse cx="244.116" cy="24" rx="13.6047" ry="13" fill="#646664"/>
<path d="M262.812 36.3C262.478 36.3 262.212 36.2 262.012 36C261.845 35.8 261.762 35.5333 261.762 35.2V12.6C261.762 12.2333 261.845 11.9667 262.012 11.8C262.212 11.6 262.478 11.5 262.812 11.5C263.145 11.5 263.395 11.6 263.562 11.8C263.728 11.9667 263.812 12.2333 263.812 12.6V17.7H263.262C263.928 15.6 265.078 14.0333 266.712 13C268.345 11.9333 270.228 11.4 272.362 11.4C274.295 11.4 275.895 11.7333 277.162 12.4C278.462 13.0667 279.428 14.0833 280.062 15.45C280.695 16.8167 281.012 18.5333 281.012 20.6V35.2C281.012 35.5333 280.912 35.8 280.712 36C280.545 36.2 280.295 36.3 279.962 36.3C279.628 36.3 279.362 36.2 279.162 36C278.995 35.8 278.912 35.5333 278.912 35.2V20.8C278.912 18.2333 278.395 16.35 277.362 15.15C276.328 13.95 274.662 13.35 272.362 13.35C269.795 13.35 267.728 14.15 266.162 15.75C264.628 17.3167 263.862 19.4333 263.862 22.1V35.2C263.862 35.9333 263.512 36.3 262.812 36.3ZM297.898 36.4C296.232 36.4 294.832 36.0833 293.698 35.45C292.565 34.7833 291.715 33.85 291.148 32.65C290.582 31.4167 290.298 29.9333 290.298 28.2V13.6H286.248C285.915 13.6 285.648 13.5167 285.448 13.35C285.248 13.1833 285.148 12.9667 285.148 12.7C285.148 12.4333 285.248 12.2167 285.448 12.05C285.648 11.8833 285.915 11.8 286.248 11.8H290.298V5.05C290.298 4.68333 290.382 4.41666 290.548 4.25C290.748 4.05 291.015 3.95 291.348 3.95C291.682 3.95 291.932 4.05 292.098 4.25C292.298 4.41666 292.398 4.68333 292.398 5.05V11.8H299.548C299.915 11.8 300.182 11.8833 300.348 12.05C300.548 12.2167 300.648 12.4333 300.648 12.7C300.648 12.9667 300.548 13.1833 300.348 13.35C300.182 13.5167 299.915 13.6 299.548 13.6H292.398V27.75C292.398 29.9167 292.832 31.5833 293.698 32.75C294.565 33.8833 296.015 34.45 298.048 34.45C298.748 34.45 299.315 34.3833 299.748 34.25C300.215 34.0833 300.598 34 300.898 34C301.098 34 301.265 34.0833 301.398 34.25C301.565 34.4167 301.648 34.65 301.648 34.95C301.648 35.1167 301.598 35.3 301.498 35.5C301.432 35.6667 301.282 35.7833 301.048 35.85C300.715 35.9833 300.232 36.1 299.598 36.2C298.998 36.3333 298.432 36.4 297.898 36.4ZM312.714 36.4C311.147 36.4 309.731 36.0833 308.464 35.45C307.197 34.8167 306.197 33.9667 305.464 32.9C304.731 31.8 304.364 30.5833 304.364 29.25C304.364 27.45 304.797 26.05 305.664 25.05C306.564 24.0167 308.081 23.3 310.214 22.9C312.381 22.4667 315.347 22.25 319.114 22.25H321.164V24.1H319.214C315.914 24.1 313.347 24.25 311.514 24.55C309.714 24.8167 308.447 25.3167 307.714 26.05C307.014 26.75 306.664 27.75 306.664 29.05C306.664 30.65 307.214 31.9667 308.314 33C309.447 34 310.964 34.5 312.864 34.5C314.397 34.5 315.731 34.1333 316.864 33.4C318.031 32.6333 318.947 31.6167 319.614 30.35C320.281 29.05 320.614 27.5833 320.614 25.95V20.25C320.614 17.85 320.147 16.1 319.214 15C318.281 13.9 316.781 13.35 314.714 13.35C313.381 13.35 312.097 13.5333 310.864 13.9C309.664 14.2667 308.397 14.8333 307.064 15.6C306.764 15.7667 306.497 15.8333 306.264 15.8C306.064 15.7667 305.897 15.6833 305.764 15.55C305.631 15.3833 305.531 15.2 305.464 15C305.431 14.7667 305.447 14.55 305.514 14.35C305.614 14.15 305.781 13.9833 306.014 13.85C307.381 13.0167 308.797 12.4 310.264 12C311.731 11.6 313.181 11.4 314.614 11.4C316.447 11.4 317.964 11.7167 319.164 12.35C320.364 12.9833 321.247 13.95 321.814 15.25C322.414 16.55 322.714 18.2167 322.714 20.25V35.2C322.714 35.5333 322.631 35.8 322.464 36C322.297 36.2 322.047 36.3 321.714 36.3C321.381 36.3 321.114 36.2 320.914 36C320.747 35.8 320.664 35.5333 320.664 35.2V29.95H321.214C320.881 31.2833 320.314 32.4333 319.514 33.4C318.714 34.3667 317.731 35.1167 316.564 35.65C315.431 36.15 314.147 36.4 312.714 36.4ZM339.598 36.4C337.931 36.4 336.531 36.0833 335.398 35.45C334.264 34.7833 333.414 33.85 332.848 32.65C332.281 31.4167 331.998 29.9333 331.998 28.2V13.6H327.948C327.614 13.6 327.348 13.5167 327.148 13.35C326.948 13.1833 326.848 12.9667 326.848 12.7C326.848 12.4333 326.948 12.2167 327.148 12.05C327.348 11.8833 327.614 11.8 327.948 11.8H331.998V5.05C331.998 4.68333 332.081 4.41666 332.248 4.25C332.448 4.05 332.714 3.95 333.048 3.95C333.381 3.95 333.631 4.05 333.798 4.25C333.998 4.41666 334.098 4.68333 334.098 5.05V11.8H341.248C341.614 11.8 341.881 11.8833 342.048 12.05C342.248 12.2167 342.348 12.4333 342.348 12.7C342.348 12.9667 342.248 13.1833 342.048 13.35C341.881 13.5167 341.614 13.6 341.248 13.6H334.098V27.75C334.098 29.9167 334.531 31.5833 335.398 32.75C336.264 33.8833 337.714 34.45 339.748 34.45C340.448 34.45 341.014 34.3833 341.448 34.25C341.914 34.0833 342.298 34 342.598 34C342.798 34 342.964 34.0833 343.098 34.25C343.264 34.4167 343.348 34.65 343.348 34.95C343.348 35.1167 343.298 35.3 343.198 35.5C343.131 35.6667 342.981 35.7833 342.748 35.85C342.414 35.9833 341.931 36.1 341.298 36.2C340.698 36.3333 340.131 36.4 339.598 36.4Z" fill="white"/>
<ellipse cx="361.116" cy="24" rx="13.6047" ry="13" fill="#646664"/>
<path d="M14.3 36.4C11.9 36.4 9.83333 35.9 8.1 34.9C6.36667 33.9 5.01667 32.4833 4.05 30.65C3.11667 28.7833 2.65 26.5667 2.65 24C2.65 21.4667 3.11667 19.2667 4.05 17.4C5.01667 15.5 6.33333 14.0333 8 13C9.7 11.9333 11.65 11.4 13.85 11.4C15.4167 11.4 16.8 11.6667 18 12.2C19.2333 12.7333 20.2667 13.5 21.1 14.5C21.9667 15.5 22.6167 16.7167 23.05 18.15C23.5167 19.5833 23.75 21.2 23.75 23C23.75 23.4333 23.65 23.7667 23.45 24C23.2833 24.2 23.0167 24.3 22.65 24.3H4V22.45H22.65L21.8 23.05C21.8 21.0167 21.5 19.2833 20.9 17.85C20.3 16.3833 19.4 15.2667 18.2 14.5C17.0333 13.7 15.5667 13.3 13.8 13.3C11.8667 13.3 10.2167 13.7667 8.85 14.7C7.51667 15.6 6.5 16.8333 5.8 18.4C5.13333 19.9667 4.8 21.75 4.8 23.75V24C4.8 27.3333 5.61667 29.9167 7.25 31.75C8.91667 33.55 11.2333 34.45 14.2 34.45C15.5333 34.45 16.7833 34.2833 17.95 33.95C19.1167 33.5833 20.2667 32.95 21.4 32.05C21.6333 31.85 21.8667 31.75 22.1 31.75C22.3667 31.7167 22.5833 31.7667 22.75 31.9C22.95 32 23.0833 32.15 23.15 32.35C23.25 32.5167 23.2667 32.7167 23.2 32.95C23.1333 33.1833 22.9667 33.4 22.7 33.6C21.6667 34.4667 20.4 35.15 18.9 35.65C17.4 36.15 15.8667 36.4 14.3 36.4ZM31.4719 36.3C31.1385 36.3 30.8719 36.2 30.6719 36C30.5052 35.8 30.4219 35.5333 30.4219 35.2V12.6C30.4219 12.2333 30.5052 11.9667 30.6719 11.8C30.8719 11.6 31.1385 11.5 31.4719 11.5C31.8052 11.5 32.0552 11.6 32.2219 11.8C32.3885 11.9667 32.4719 12.2333 32.4719 12.6V17.7H31.9219C32.5885 15.6 33.7385 14.0333 35.3719 13C37.0052 11.9333 38.8885 11.4 41.0219 11.4C42.9552 11.4 44.5552 11.7333 45.8219 12.4C47.1219 13.0667 48.0885 14.0833 48.7219 15.45C49.3552 16.8167 49.6719 18.5333 49.6719 20.6V35.2C49.6719 35.5333 49.5719 35.8 49.3719 36C49.2052 36.2 48.9552 36.3 48.6219 36.3C48.2885 36.3 48.0219 36.2 47.8219 36C47.6552 35.8 47.5719 35.5333 47.5719 35.2V20.8C47.5719 18.2333 47.0552 16.35 46.0219 15.15C44.9885 13.95 43.3219 13.35 41.0219 13.35C38.4552 13.35 36.3885 14.15 34.8219 15.75C33.2885 17.3167 32.5219 19.4333 32.5219 22.1V35.2C32.5219 35.9333 32.1719 36.3 31.4719 36.3ZM66.5586 36.4C64.8919 36.4 63.4919 36.0833 62.3586 35.45C61.2253 34.7833 60.3753 33.85 59.8086 32.65C59.2419 31.4167 58.9586 29.9333 58.9586 28.2V13.6H54.9086C54.5753 13.6 54.3086 13.5167 54.1086 13.35C53.9086 13.1833 53.8086 12.9667 53.8086 12.7C53.8086 12.4333 53.9086 12.2167 54.1086 12.05C54.3086 11.8833 54.5753 11.8 54.9086 11.8H58.9586V5.05C58.9586 4.68333 59.0419 4.41666 59.2086 4.25C59.4086 4.05 59.6753 3.95 60.0086 3.95C60.3419 3.95 60.5919 4.05 60.7586 4.25C60.9586 4.41666 61.0586 4.68333 61.0586 5.05V11.8H68.2086C68.5753 11.8 68.8419 11.8833 69.0086 12.05C69.2086 12.2167 69.3086 12.4333 69.3086 12.7C69.3086 12.9667 69.2086 13.1833 69.0086 13.35C68.8419 13.5167 68.5753 13.6 68.2086 13.6H61.0586V27.75C61.0586 29.9167 61.4919 31.5833 62.3586 32.75C63.2253 33.8833 64.6753 34.45 66.7086 34.45C67.4086 34.45 67.9753 34.3833 68.4086 34.25C68.8753 34.0833 69.2586 34 69.5586 34C69.7586 34 69.9253 34.0833 70.0586 34.25C70.2253 34.4167 70.3086 34.65 70.3086 34.95C70.3086 35.1167 70.2586 35.3 70.1586 35.5C70.0919 35.6667 69.9419 35.7833 69.7086 35.85C69.3753 35.9833 68.8919 36.1 68.2586 36.2C67.6586 36.3333 67.0919 36.4 66.5586 36.4ZM75.1242 36.3C74.7909 36.3 74.5242 36.2 74.3242 36C74.1576 35.8 74.0742 35.5333 74.0742 35.2V12.6C74.0742 12.2333 74.1576 11.9667 74.3242 11.8C74.5242 11.6 74.7909 11.5 75.1242 11.5C75.4576 11.5 75.7076 11.6 75.8742 11.8C76.0409 11.9667 76.1242 12.2333 76.1242 12.6V17.45H75.6242C76.2576 15.4833 77.3742 13.9667 78.9742 12.9C80.6076 11.8333 82.4909 11.3 84.6242 11.3C84.9242 11.3 85.1742 11.3667 85.3742 11.5C85.6076 11.6 85.7242 11.8167 85.7242 12.15C85.7242 12.4833 85.6409 12.75 85.4742 12.95C85.3076 13.1167 85.0242 13.2167 84.6242 13.25L84.0242 13.3C81.5576 13.5333 79.6242 14.3667 78.2242 15.8C76.8576 17.2333 76.1742 19.1333 76.1742 21.5V35.2C76.1742 35.5333 76.0909 35.8 75.9242 36C75.7576 36.2 75.4909 36.3 75.1242 36.3ZM100.238 36.4C97.8375 36.4 95.7708 35.9 94.0375 34.9C92.3042 33.9 90.9542 32.4833 89.9875 30.65C89.0542 28.7833 88.5875 26.5667 88.5875 24C88.5875 21.4667 89.0542 19.2667 89.9875 17.4C90.9542 15.5 92.2708 14.0333 93.9375 13C95.6375 11.9333 97.5875 11.4 99.7875 11.4C101.354 11.4 102.738 11.6667 103.938 12.2C105.171 12.7333 106.204 13.5 107.038 14.5C107.904 15.5 108.554 16.7167 108.988 18.15C109.454 19.5833 109.688 21.2 109.688 23C109.688 23.4333 109.588 23.7667 109.388 24C109.221 24.2 108.954 24.3 108.588 24.3H89.9375V22.45H108.588L107.738 23.05C107.738 21.0167 107.438 19.2833 106.838 17.85C106.238 16.3833 105.338 15.2667 104.138 14.5C102.971 13.7 101.504 13.3 99.7375 13.3C97.8042 13.3 96.1542 13.7667 94.7875 14.7C93.4542 15.6 92.4375 16.8333 91.7375 18.4C91.0708 19.9667 90.7375 21.75 90.7375 23.75V24C90.7375 27.3333 91.5542 29.9167 93.1875 31.75C94.8542 33.55 97.1708 34.45 100.138 34.45C101.471 34.45 102.721 34.2833 103.888 33.95C105.054 33.5833 106.204 32.95 107.338 32.05C107.571 31.85 107.804 31.75 108.038 31.75C108.304 31.7167 108.521 31.7667 108.688 31.9C108.888 32 109.021 32.15 109.088 32.35C109.188 32.5167 109.204 32.7167 109.138 32.95C109.071 33.1833 108.904 33.4 108.638 33.6C107.604 34.4667 106.338 35.15 104.838 35.65C103.338 36.15 101.804 36.4 100.238 36.4ZM138.714 36.4C136.314 36.4 134.247 35.9 132.514 34.9C130.781 33.9 129.431 32.4833 128.464 30.65C127.531 28.7833 127.064 26.5667 127.064 24C127.064 21.4667 127.531 19.2667 128.464 17.4C129.431 15.5 130.747 14.0333 132.414 13C134.114 11.9333 136.064 11.4 138.264 11.4C139.831 11.4 141.214 11.6667 142.414 12.2C143.647 12.7333 144.681 13.5 145.514 14.5C146.381 15.5 147.031 16.7167 147.464 18.15C147.931 19.5833 148.164 21.2 148.164 23C148.164 23.4333 148.064 23.7667 147.864 24C147.697 24.2 147.431 24.3 147.064 24.3H128.414V22.45H147.064L146.214 23.05C146.214 21.0167 145.914 19.2833 145.314 17.85C144.714 16.3833 143.814 15.2667 142.614 14.5C141.447 13.7 139.981 13.3 138.214 13.3C136.281 13.3 134.631 13.7667 133.264 14.7C131.931 15.6 130.914 16.8333 130.214 18.4C129.547 19.9667 129.214 21.75 129.214 23.75V24C129.214 27.3333 130.031 29.9167 131.664 31.75C133.331 33.55 135.647 34.45 138.614 34.45C139.947 34.45 141.197 34.2833 142.364 33.95C143.531 33.5833 144.681 32.95 145.814 32.05C146.047 31.85 146.281 31.75 146.514 31.75C146.781 31.7167 146.997 31.7667 147.164 31.9C147.364 32 147.497 32.15 147.564 32.35C147.664 32.5167 147.681 32.7167 147.614 32.95C147.547 33.1833 147.381 33.4 147.114 33.6C146.081 34.4667 144.814 35.15 143.314 35.65C141.814 36.15 140.281 36.4 138.714 36.4ZM155.986 36.3C155.653 36.3 155.386 36.2 155.186 36C155.019 35.8 154.936 35.5333 154.936 35.2V12.6C154.936 12.2333 155.019 11.9667 155.186 11.8C155.386 11.6 155.653 11.5 155.986 11.5C156.319 11.5 156.569 11.6 156.736 11.8C156.903 11.9667 156.986 12.2333 156.986 12.6V17.7H156.436C157.036 15.6333 158.053 14.0667 159.486 13C160.919 11.9333 162.653 11.4 164.686 11.4C166.853 11.4 168.569 11.9333 169.836 13C171.136 14.0333 171.969 15.6167 172.336 17.75H171.586C172.119 15.8167 173.153 14.2833 174.686 13.15C176.253 11.9833 178.119 11.4 180.286 11.4C182.053 11.4 183.519 11.75 184.686 12.45C185.853 13.1167 186.736 14.1333 187.336 15.5C187.936 16.8333 188.236 18.5333 188.236 20.6V35.2C188.236 35.5333 188.136 35.8 187.936 36C187.769 36.2 187.519 36.3 187.186 36.3C186.853 36.3 186.586 36.2 186.386 36C186.219 35.8 186.136 35.5333 186.136 35.2V20.8C186.136 18.2333 185.669 16.35 184.736 15.15C183.836 13.95 182.319 13.35 180.186 13.35C177.886 13.35 176.053 14.15 174.686 15.75C173.319 17.3167 172.636 19.4333 172.636 22.1V35.2C172.636 35.5333 172.536 35.8 172.336 36C172.169 36.2 171.919 36.3 171.586 36.3C171.253 36.3 170.986 36.2 170.786 36C170.619 35.8 170.536 35.5333 170.536 35.2V20.8C170.536 18.2333 170.069 16.35 169.136 15.15C168.236 13.95 166.719 13.35 164.586 13.35C162.286 13.35 160.453 14.15 159.086 15.75C157.719 17.3167 157.036 19.4333 157.036 22.1V35.2C157.036 35.9333 156.686 36.3 155.986 36.3ZM218.485 36.4C216.185 36.4 214.202 35.8667 212.535 34.8C210.902 33.7333 209.635 32.25 208.735 30.35C207.868 28.45 207.435 26.2333 207.435 23.7C207.435 21.8 207.685 20.1 208.185 18.6C208.685 17.0667 209.402 15.7667 210.335 14.7C211.302 13.6333 212.468 12.8167 213.835 12.25C215.202 11.6833 216.752 11.4 218.485 11.4C219.752 11.4 221.035 11.6333 222.335 12.1C223.668 12.5333 224.852 13.2667 225.885 14.3C226.052 14.4667 226.135 14.65 226.135 14.85C226.168 15.05 226.135 15.25 226.035 15.45C225.968 15.6167 225.852 15.75 225.685 15.85C225.518 15.95 225.318 16 225.085 16C224.852 15.9667 224.618 15.8333 224.385 15.6C223.418 14.7333 222.418 14.15 221.385 13.85C220.385 13.5167 219.402 13.35 218.435 13.35C217.002 13.35 215.735 13.5833 214.635 14.05C213.535 14.5167 212.602 15.2 211.835 16.1C211.102 16.9667 210.535 18.05 210.135 19.35C209.768 20.6167 209.585 22.0833 209.585 23.75C209.585 27.0833 210.352 29.7 211.885 31.6C213.418 33.5 215.602 34.45 218.435 34.45C219.402 34.45 220.385 34.3 221.385 34C222.418 33.6667 223.418 33.0667 224.385 32.2C224.618 31.9667 224.852 31.85 225.085 31.85C225.318 31.8167 225.518 31.85 225.685 31.95C225.852 32.05 225.968 32.2 226.035 32.4C226.135 32.5667 226.168 32.75 226.135 32.95C226.135 33.15 226.052 33.3333 225.885 33.5C224.852 34.5333 223.668 35.2833 222.335 35.75C221.035 36.1833 219.752 36.4 218.485 36.4Z" fill="white"/>
</svg>
