<svg width="688" height="688" viewBox="0 0 688 688" fill="none" xmlns="http://www.w3.org/2000/svg">
<path d="M145.603 542.755C148.88 546.031 151.099 549.537 152.26 553.27C153.38 556.963 153.401 560.677 152.322 564.408C151.244 568.142 149.066 571.647 145.789 574.923C143.342 577.372 140.77 579.197 138.074 580.399C135.377 581.602 132.64 582.183 129.86 582.141C126.998 582.1 124.219 581.438 121.523 580.15C118.785 578.906 116.192 577.061 113.745 574.612C110.468 571.336 108.27 567.851 107.15 564.158C105.988 560.427 105.926 556.714 106.963 553.021C107.959 549.287 110.095 545.782 113.372 542.506C115.861 540.019 118.474 538.191 121.212 537.03C123.908 535.827 126.666 535.226 129.487 535.226C132.308 535.226 135.108 535.871 137.887 537.156C140.583 538.44 143.155 540.309 145.603 542.755ZM138.572 549.786C137.203 548.416 135.689 547.568 134.029 547.234C132.37 546.903 130.607 547.09 128.741 547.794C126.832 548.542 124.862 549.933 122.829 551.965C119.801 554.992 118.204 557.834 118.038 560.489C117.831 563.185 118.743 565.549 120.776 567.581C122.104 568.91 123.597 569.781 125.256 570.195C126.874 570.567 128.637 570.383 130.545 569.635C132.37 568.89 134.299 567.499 136.331 565.467C139.36 562.44 140.998 559.556 141.247 556.817C141.455 554.121 140.563 551.777 138.572 549.786Z" fill="#3F403F"/>
<path d="M70.3617 407.285C71.4094 411.195 71.6385 414.656 71.0489 417.668C70.4438 420.622 69.0696 423.086 66.9255 425.057C64.7664 426.972 61.7884 428.439 57.992 429.456L42.0128 433.739L42.9693 437.308C43.3943 438.892 43.3034 440.253 42.6962 441.388C42.0741 442.465 41.0264 443.201 39.553 443.597C37.9665 444.022 36.6627 443.917 35.6417 443.28C34.5488 442.6 33.7897 441.468 33.3647 439.881L32.4082 436.311L25.9485 438.042C23.7953 438.619 22.0283 438.485 20.648 437.64C19.211 436.81 18.2193 435.375 17.6729 433.337C17.1109 431.24 17.2526 429.5 18.0973 428.122C18.8855 426.755 20.3562 425.784 22.5094 425.206L28.9691 423.476L26.8056 415.401C26.3803 413.814 26.4788 412.482 27.1012 411.406C27.6667 410.344 28.7429 409.599 30.3294 409.174C31.8028 408.778 33.0781 408.892 34.1558 409.514C35.2337 410.139 35.9849 411.241 36.4102 412.828L38.5737 420.903L54.0431 416.759C56.4228 416.119 58.0636 415.104 58.9649 413.708C59.8513 412.256 59.9681 410.312 59.3151 407.874C59.0875 407.026 58.7898 406.255 58.4226 405.563C58.0551 404.874 57.7597 404.222 57.5359 403.615C57.2666 402.838 57.347 402.116 57.777 401.453C58.1504 400.808 59.2436 400.242 61.0569 399.755C62.417 399.392 63.6676 399.301 64.8089 399.479C65.9505 399.658 66.8997 400.257 67.6564 401.269C68.1372 401.929 68.6373 402.888 69.1565 404.146C69.717 405.331 70.1188 406.378 70.3617 407.285Z" fill="#3F403F"/>
<path d="M22.554 251.055C23.2784 251.978 23.5682 252.936 23.4233 253.93C23.294 254.866 22.8886 255.699 22.2076 256.428C21.5265 257.156 20.7078 257.605 19.7516 257.774C18.7538 257.871 17.8134 257.528 16.9299 256.745L6.56242 247.499C5.46777 246.598 4.87938 245.62 4.79754 244.566C4.73096 243.455 4.97588 242.427 5.5323 241.483C6.10426 240.483 6.8572 239.713 7.79111 239.173C8.68367 238.562 9.66276 238.308 10.7281 238.412C11.7937 238.515 12.7584 239.107 13.6225 240.189L22.554 251.055Z" fill="#3F403F"/>
<path d="M103.994 198.777C101.384 203.298 98.1885 205.958 94.4086 206.757C90.5779 207.525 86.1732 206.472 81.1944 203.598L46.8258 183.755C44.8952 182.64 43.7258 181.322 43.3181 179.799C42.8883 178.197 43.2163 176.455 44.3015 174.576C45.3575 172.747 46.6721 171.643 48.2458 171.264C49.7974 170.806 51.5388 171.133 53.4694 172.248L87.3807 191.827C89.4636 193.029 91.2625 193.492 92.7771 193.215C94.2704 192.858 95.4425 191.943 96.2931 190.469C96.5278 190.063 96.7222 189.667 96.8768 189.282C97.0314 188.897 97.2259 188.502 97.4605 188.095C97.8283 187.224 98.405 186.812 99.1905 186.859C99.9546 186.826 101.2 187.308 102.928 188.305C104.452 189.185 105.444 190.165 105.905 191.244C106.315 192.293 106.281 193.526 105.802 194.943C105.559 195.48 105.272 196.094 104.942 196.784C104.662 197.503 104.346 198.167 103.994 198.777Z" fill="#3F403F"/>
<path d="M146.439 144.643C144.904 146.178 143.287 146.924 141.586 146.883C139.885 146.758 138.226 145.887 136.608 144.27L115.328 122.99C113.669 121.331 112.798 119.671 112.715 118.012C112.632 116.27 113.358 114.631 114.893 113.096C116.386 111.603 117.983 110.919 119.684 111.043C121.385 111.084 123.065 111.935 124.724 113.594L146.004 134.874C147.621 136.492 148.492 138.151 148.617 139.852C148.7 141.511 147.974 143.108 146.439 144.643ZM109.791 107.994C108.049 109.736 106.306 110.691 104.564 110.857C102.822 110.939 101.204 110.234 99.7108 108.741C98.1759 107.206 97.4707 105.588 97.5951 103.888C97.7198 102.104 98.6531 100.341 100.395 98.5989C102.137 96.8566 103.88 95.9441 105.622 95.8611C107.323 95.7367 108.94 96.4419 110.475 97.9765C111.968 99.4697 112.674 101.088 112.591 102.83C112.466 104.531 111.533 106.252 109.791 107.994Z" fill="#3F403F"/>
<path d="M203.66 101.304C199.646 103.621 195.686 104.857 191.78 105.013C187.924 105.139 184.332 104.199 181.005 102.191C177.678 100.183 174.856 97.1716 172.539 93.1582C170.808 90.1608 169.711 87.2042 169.247 84.2884C168.783 81.3728 168.931 78.5781 169.69 75.9043C170.471 73.1503 171.831 70.6375 173.771 68.3661C175.682 66.0436 178.136 64.0171 181.133 62.2865C185.147 59.9693 189.081 58.7477 192.937 58.6212C196.844 58.4655 200.446 59.3666 203.744 61.3236C207.092 63.2515 209.925 66.2222 212.242 70.2356C214.002 73.2838 215.089 76.2806 215.502 79.2255C215.966 82.1413 215.833 84.9615 215.103 87.6861C214.373 90.4107 213.027 92.9488 211.066 95.3006C209.126 97.572 206.657 99.5733 203.66 101.304ZM198.688 92.6924C200.365 91.7245 201.578 90.4823 202.328 88.9653C203.078 87.4485 203.354 85.6975 203.156 83.7117C202.928 81.6755 202.096 79.4126 200.659 76.9232C198.518 73.2146 196.186 70.9367 193.665 70.0893C191.114 69.1909 188.594 69.4604 186.105 70.8977C184.479 71.8363 183.251 73.0532 182.421 74.5485C181.642 76.0148 181.366 77.7659 181.593 79.8021C181.842 81.7585 182.685 83.9813 184.122 86.4706C186.263 90.1793 188.624 92.5082 191.204 93.4571C193.755 94.3552 196.25 94.1003 198.688 92.6924Z" fill="#3F403F"/>
<path d="M542.398 145.853C539.119 142.576 536.902 139.071 535.74 135.337C534.62 131.645 534.599 127.933 535.679 124.2C536.755 120.466 538.934 116.961 542.211 113.684C544.657 111.237 547.229 109.411 549.928 108.209C552.623 107.006 555.36 106.425 558.141 106.466C561.001 106.508 563.781 107.172 566.477 108.458C569.216 109.702 571.806 111.548 574.255 113.995C577.532 117.272 579.732 120.757 580.849 124.449C582.011 128.182 582.075 131.894 581.037 135.586C580.042 139.319 577.904 142.824 574.628 146.101C572.141 148.59 569.527 150.415 566.788 151.577C564.092 152.78 561.335 153.381 558.513 153.381C555.691 153.381 552.893 152.738 550.113 151.453C547.417 150.167 544.845 148.3 542.398 145.853ZM549.429 138.822C550.799 140.19 552.312 141.041 553.97 141.373C555.63 141.705 557.393 141.518 559.258 140.813C561.168 140.066 563.139 138.676 565.171 136.644C568.198 133.616 569.797 130.774 569.961 128.119C570.169 125.423 569.257 123.059 567.225 121.026C565.896 119.699 564.403 118.828 562.743 118.413C561.127 118.04 559.364 118.226 557.454 118.973C555.63 119.719 553.7 121.109 551.667 123.142C548.64 126.17 547.001 129.053 546.754 131.791C546.546 134.487 547.438 136.831 549.429 138.822Z" fill="#3F403F"/>
<path d="M617.64 281.323C616.59 277.414 616.361 273.953 616.95 270.941C617.557 267.985 618.93 265.522 621.074 263.55C623.233 261.635 626.213 260.169 630.009 259.152L645.988 254.871L645.032 251.301C644.607 249.714 644.698 248.354 645.305 247.219C645.927 246.142 646.974 245.405 648.446 245.011C650.033 244.586 651.339 244.692 652.359 245.329C653.45 246.008 654.21 247.141 654.635 248.727L655.592 252.297L662.05 250.566C664.206 249.989 665.972 250.123 667.351 250.968C668.788 251.798 669.782 253.232 670.328 255.272C670.888 257.369 670.747 259.107 669.902 260.487C669.113 261.853 667.644 262.824 665.491 263.401L659.032 265.132L661.194 273.206C661.619 274.793 661.522 276.125 660.898 277.203C660.334 278.265 659.258 279.009 657.671 279.434C656.199 279.827 654.923 279.715 653.843 279.093C652.767 278.471 652.016 277.366 651.591 275.78L649.426 267.705L633.957 271.85C631.578 272.488 629.935 273.504 629.035 274.9C628.149 276.352 628.032 278.296 628.686 280.734C628.912 281.582 629.211 282.353 629.578 283.045C629.944 283.734 630.24 284.386 630.463 284.993C630.733 285.77 630.654 286.492 630.223 287.154C629.85 287.8 628.756 288.366 626.944 288.853C625.583 289.217 624.333 289.307 623.192 289.129C622.051 288.95 621.101 288.351 620.344 287.339C619.863 286.679 619.364 285.72 618.845 284.462C618.282 283.277 617.88 282.23 617.64 281.323Z" fill="#3F403F"/>
<path d="M665.447 440.488C664.723 439.564 664.432 438.605 664.576 437.61C664.705 436.675 665.113 435.842 665.793 435.114C666.474 434.384 667.292 433.935 668.248 433.768C669.246 433.671 670.187 434.014 671.07 434.798L681.439 444.043C682.533 444.943 683.119 445.92 683.201 446.976C683.269 448.088 683.025 449.114 682.468 450.059C681.896 451.059 681.142 451.827 680.21 452.367C679.318 452.98 678.338 453.232 677.271 453.13C676.206 453.027 675.241 452.435 674.378 451.352L665.447 440.488Z" fill="#3F403F"/>
<path d="M584.005 489.832C586.616 485.309 589.813 482.649 593.591 481.851C597.421 481.083 601.827 482.136 606.805 485.01L641.175 504.853C643.105 505.968 644.276 507.287 644.683 508.81C645.112 510.411 644.783 512.154 643.698 514.034C642.642 515.861 641.328 516.964 639.756 517.342C638.204 517.803 636.462 517.474 634.532 516.36L600.619 496.781C598.536 495.578 596.738 495.115 595.222 495.394C593.729 495.751 592.558 496.667 591.708 498.139C591.473 498.544 591.279 498.94 591.124 499.327C590.969 499.711 590.775 500.107 590.54 500.512C590.171 501.383 589.596 501.797 588.81 501.75C588.044 501.782 586.8 501.301 585.073 500.304C583.548 499.424 582.556 498.444 582.096 497.365C581.685 496.315 581.72 495.083 582.198 493.666C582.442 493.126 582.726 492.513 583.058 491.824C583.339 491.105 583.653 490.439 584.005 489.832Z" fill="#3F403F"/>
<path d="M541.56 543.966C543.097 542.43 544.713 541.685 546.414 541.726C548.115 541.849 549.775 542.72 551.391 544.339L572.672 565.619C574.332 567.276 575.203 568.936 575.285 570.597C575.367 572.339 574.642 573.976 573.108 575.513C571.613 577.006 570.017 577.689 568.316 577.566C566.615 577.525 564.937 576.674 563.277 575.014L541.997 553.734C540.377 552.118 539.506 550.458 539.383 548.756C539.301 547.096 540.026 545.501 541.56 543.966ZM578.209 580.613C579.952 578.871 581.694 577.918 583.436 577.751C585.178 577.668 586.795 578.372 588.29 579.868C589.825 581.402 590.529 583.018 590.405 584.72C590.279 586.503 589.346 588.266 587.604 590.008C585.862 591.751 584.119 592.663 582.377 592.748C580.679 592.871 579.06 592.167 577.526 590.63C576.033 589.137 575.326 587.521 575.408 585.779C575.534 584.077 576.467 582.356 578.209 580.613Z" fill="#3F403F"/>
<path d="M484.34 587.304C488.355 584.987 492.315 583.752 496.222 583.596C500.076 583.467 503.669 584.409 506.995 586.418C510.321 588.424 513.143 591.437 515.46 595.449C517.191 598.447 518.288 601.403 518.754 604.319C519.218 607.235 519.068 610.03 518.311 612.705C517.528 615.459 516.17 617.97 514.228 620.243C512.319 622.563 509.864 624.59 506.866 626.321C502.854 628.638 498.917 629.861 495.063 629.987C491.156 630.142 487.554 629.242 484.257 627.286C480.908 625.356 478.074 622.387 475.757 618.372C473.997 615.324 472.912 612.326 472.498 609.382C472.035 606.466 472.167 603.647 472.897 600.922C473.628 598.198 474.974 595.66 476.933 593.308C478.875 591.035 481.342 589.034 484.34 587.304ZM489.311 595.915C487.636 596.883 486.422 598.127 485.671 599.643C484.923 601.16 484.648 602.911 484.844 604.897C485.073 606.932 485.903 609.194 487.34 611.684C489.481 615.395 491.813 617.671 494.336 618.518C496.885 619.416 499.407 619.146 501.894 617.709C503.522 616.77 504.748 615.556 505.579 614.06C506.359 612.593 506.634 610.842 506.406 608.807C506.159 606.85 505.315 604.627 503.877 602.137C501.736 598.429 499.375 596.1 496.797 595.15C494.245 594.252 491.752 594.508 489.311 595.915Z" fill="#3F403F"/>
<path d="M344 578.956C473.595 578.956 578.652 473.899 578.652 344.304C578.652 214.709 473.595 109.652 344 109.652C214.405 109.652 109.348 214.709 109.348 344.304C109.348 473.899 214.405 578.956 344 578.956Z" fill="#008170"/>
<path d="M191.476 109.652C206.056 109.652 217.875 97.833 217.875 83.2536C217.875 68.6742 206.056 56.8552 191.476 56.8552C176.897 56.8552 165.078 68.6742 165.078 83.2536C165.078 97.833 176.897 109.652 191.476 109.652Z" fill="#008170"/>
<path d="M129.88 584.822C144.459 584.822 156.278 573.003 156.278 558.424C156.278 543.845 144.459 532.026 129.88 532.026C115.301 532.026 103.482 543.845 103.482 558.424C103.482 573.003 115.301 584.822 129.88 584.822Z" fill="#008170"/>
<path d="M50.6849 291.507C65.2643 291.507 77.0833 279.688 77.0833 265.109C77.0833 250.53 65.2643 238.711 50.6849 238.711C36.1055 238.711 24.2866 250.53 24.2866 265.109C24.2866 279.688 36.1055 291.507 50.6849 291.507Z" fill="#008170"/>
<path d="M496.524 631.753C511.103 631.753 522.922 619.934 522.922 605.354C522.922 590.775 511.103 578.956 496.524 578.956C481.944 578.956 470.126 590.775 470.126 605.354C470.126 619.934 481.944 631.753 496.524 631.753Z" fill="#008170"/>
<path d="M558.12 156.582C572.7 156.582 584.518 144.763 584.518 130.184C584.518 115.605 572.7 103.786 558.12 103.786C543.541 103.786 531.722 115.605 531.722 130.184C531.722 144.763 543.541 156.582 558.12 156.582Z" fill="#008170"/>
<path d="M637.315 449.897C651.895 449.897 663.714 438.078 663.714 423.499C663.714 408.92 651.895 397.101 637.315 397.101C622.736 397.101 610.917 408.92 610.917 423.499C610.917 438.078 622.736 449.897 637.315 449.897Z" fill="#008170"/>
<path fill-rule="evenodd" clip-rule="evenodd" d="M461.238 104.019C461.666 105.622 462.822 106.966 464.702 108.051C466.529 109.107 468.222 109.406 469.774 108.947C471.346 108.568 472.689 107.414 473.804 105.483L481.649 91.8943C481.681 93.869 482.203 95.8405 483.213 97.8087C484.68 100.551 486.886 102.773 489.83 104.474C493.133 106.381 496.459 107.25 499.806 107.083C503.156 106.916 506.365 105.755 509.439 103.601C512.51 101.446 515.205 98.3622 517.522 94.3488C519.84 90.335 521.148 86.4844 521.45 82.7968C521.749 79.109 521.11 75.759 519.529 72.747C518 69.764 515.61 67.3342 512.357 65.4569C509.359 63.7264 506.253 62.9485 503.035 63.1233C500.794 63.233 498.798 63.8141 497.05 64.8669L497.19 64.6254C498.275 62.7455 498.615 61.0443 498.208 59.5217C497.829 57.9484 496.7 56.6191 494.82 55.5338C493.042 54.5072 491.35 54.2086 489.748 54.638C488.226 55.046 486.921 56.1899 485.836 58.0698L462.297 98.8397C461.182 100.77 460.83 102.497 461.238 104.019ZM496.345 95.1275C494.655 95.2363 492.998 94.8216 491.373 93.883C488.886 92.4457 487.39 90.3981 486.894 87.7401C486.425 85.031 487.261 81.8225 489.402 78.1138C490.839 75.6244 492.371 73.7974 493.99 72.6332C495.641 71.418 497.295 70.7815 498.953 70.7234C500.663 70.6947 502.332 71.1496 503.956 72.0882C506.397 73.4961 507.863 75.5291 508.362 78.1871C508.887 80.7944 508.081 83.9525 505.939 87.6612C504.502 90.1506 502.959 92.0025 501.308 93.2177C499.739 94.4112 498.084 95.048 496.345 95.1275Z" fill="#3F403F"/>
<path fill-rule="evenodd" clip-rule="evenodd" d="M332.819 69.9958C333.054 71.1104 333.787 72.049 335.019 72.8116C336.251 73.5156 337.395 73.6329 338.45 73.1636C339.565 72.6356 340.445 71.6677 341.09 70.2598L343.985 64.0577L346.81 70.2598C347.455 71.6677 348.306 72.6356 349.362 73.1636C350.476 73.6329 351.679 73.4862 352.97 72.7236C354.26 71.961 354.993 71.0224 355.169 69.9078C355.345 68.7932 354.964 67.5906 354.025 66.3L350.728 61.3543L356.489 61.7243C358.015 61.8416 359.247 61.5483 360.185 60.8443C361.124 60.0817 361.593 58.9965 361.593 57.5885C361.593 56.1806 361.124 55.1247 360.185 54.4207C359.247 53.6581 358.015 53.3355 356.489 53.4528L350.753 53.8738L354.025 48.9651C354.964 47.6745 355.345 46.4719 355.169 45.3573C354.993 44.184 354.26 43.2161 352.97 42.4535C351.738 41.6909 350.535 41.5735 349.362 42.1015C348.247 42.5708 347.397 43.5387 346.81 45.0053L344.004 51.0281L341.266 45.0053C340.621 43.5387 339.741 42.5708 338.626 42.1015C337.512 41.5735 336.339 41.6909 335.107 42.4535C333.875 43.0988 333.142 44.0081 332.907 45.1813C332.731 46.2959 333.083 47.5278 333.963 48.8771L337.221 53.8728L331.499 53.4528C329.974 53.3355 328.742 53.6581 327.803 54.4207C326.865 55.1247 326.395 56.1806 326.395 57.5885C326.395 58.9965 326.865 60.0817 327.803 60.8443C328.742 61.5483 329.974 61.8416 331.499 61.7243L337.168 61.3602L333.875 66.3C332.995 67.5906 332.643 68.8225 332.819 69.9958Z" fill="#3F403F"/>
<path fill-rule="evenodd" clip-rule="evenodd" d="M61.4496 350.986C62.6229 349.812 63.2095 348.141 63.2095 345.97C63.2095 341.57 60.951 339.37 56.4339 339.37H29.1556V333.123C29.1556 331.422 28.7156 330.131 27.8357 329.251C26.9557 328.371 25.7532 327.931 24.2279 327.931C22.5854 327.931 21.3534 328.371 20.5321 329.251C19.6522 330.131 19.2122 331.422 19.2122 333.123V339.37H17.7163C15.1352 339.37 13.2286 338.696 11.9967 337.347C10.7061 335.997 9.94347 333.739 9.70882 330.571L9.62082 329.339C9.56216 328.283 9.18085 327.462 8.47689 326.875C7.71427 326.23 6.86366 325.819 5.92505 325.643C4.92778 325.467 3.95984 325.526 3.02115 325.819C2.08254 326.113 1.31992 326.729 0.733287 327.667C0.146657 328.547 -0.0879945 329.75 0.0293316 331.275L0.293316 334.091C0.938609 340.192 2.81582 344.826 5.92505 347.994C8.90202 350.971 13.3311 352.523 19.2122 352.649V355.825C19.2122 357.468 19.6522 358.759 20.5321 359.697C21.3534 360.577 22.5854 361.017 24.2279 361.017C25.7532 361.017 26.9557 360.577 27.8357 359.697C28.7156 358.759 29.1556 357.468 29.1556 355.825V352.658H56.4339C58.6044 352.658 60.2763 352.1 61.4496 350.986Z" fill="#3F403F"/>
<path fill-rule="evenodd" clip-rule="evenodd" d="M104.205 494.068C104.634 492.466 104.292 490.698 103.177 488.768C102.092 486.887 100.763 485.758 99.1893 485.38C97.5866 484.952 95.8452 485.28 93.9656 486.365L79.7915 494.549C77.0988 496.103 74.6452 496.605 72.4307 496.054C70.1871 495.452 68.1023 493.777 66.1764 491.029L65.0119 489.363C63.8114 487.753 62.5486 486.858 61.2234 486.673C59.8692 486.439 58.4337 486.829 56.9176 487.838C55.2703 488.858 54.2965 489.929 53.9959 491.05C53.6151 492.15 53.8422 493.305 54.6769 494.517C56.7868 497.702 59.2811 499.852 62.1603 500.967C64.1623 501.742 66.2903 501.969 68.5442 501.649L67.1766 502.439C65.297 503.524 64.1531 504.829 63.7451 506.352C63.2863 507.903 63.5849 509.593 64.6408 511.423C65.6674 513.201 66.9821 514.306 68.5848 514.735C70.1074 515.142 71.8086 514.805 73.6882 513.72L100.741 498.101C102.621 497.016 103.776 495.669 104.205 494.068Z" fill="#3F403F"/>
<path fill-rule="evenodd" clip-rule="evenodd" d="M226.763 584.588C226.333 582.986 225.178 581.643 223.299 580.558C221.47 579.502 219.779 579.202 218.227 579.66C216.654 580.038 215.31 581.194 214.195 583.124L206.352 596.71C206.319 594.737 205.797 592.766 204.786 590.8C203.321 588.058 201.115 585.834 198.168 584.133C194.866 582.227 191.541 581.358 188.193 581.526C184.846 581.693 181.635 582.851 178.562 585.007C175.489 587.163 172.794 590.246 170.477 594.258C168.16 598.274 166.851 602.122 166.551 605.812C166.251 609.499 166.891 612.849 168.471 615.861C170 618.844 172.39 621.273 175.642 623.15C178.639 624.88 181.747 625.661 184.963 625.485C187.206 625.376 189.201 624.794 190.949 623.741L190.809 623.983C189.724 625.863 189.385 627.564 189.793 629.087C190.172 630.659 191.301 631.987 193.181 633.073C194.959 634.099 196.649 634.398 198.252 633.97C199.775 633.563 201.079 632.419 202.164 630.539L225.703 589.768C226.817 587.838 227.17 586.11 226.763 584.588ZM191.655 593.481C193.343 593.373 195 593.786 196.626 594.725C199.116 596.162 200.609 598.209 201.106 600.867C201.575 603.577 200.738 606.786 198.597 610.493C197.16 612.984 195.631 614.811 194.01 615.975C192.36 617.19 190.706 617.826 189.047 617.885C187.336 617.914 185.669 617.46 184.043 616.521C181.604 615.113 180.136 613.08 179.639 610.42C179.112 607.812 179.919 604.656 182.06 600.946C183.497 598.459 185.041 596.605 186.691 595.391C188.261 594.197 189.915 593.56 191.655 593.481Z" fill="#3F403F"/>
<path fill-rule="evenodd" clip-rule="evenodd" d="M355.181 615.679C354.947 614.565 354.213 613.626 352.981 612.863C351.749 612.159 350.606 612.042 349.55 612.511C348.435 613.039 347.555 614.007 346.91 615.415L344.016 621.617L341.19 615.415C340.545 614.007 339.694 613.039 338.638 612.511C337.524 612.042 336.321 612.189 335.031 612.951C333.74 613.714 333.007 614.653 332.831 615.767C332.655 616.882 333.036 618.084 333.975 619.375L337.272 624.321L331.511 623.951C329.985 623.833 328.754 624.127 327.815 624.831C326.876 625.593 326.407 626.679 326.407 628.086C326.407 629.494 326.876 630.55 327.815 631.254C328.754 632.017 329.985 632.339 331.511 632.222L337.247 631.801L333.975 636.71C333.036 638 332.655 639.203 332.831 640.318C333.007 641.491 333.74 642.459 335.031 643.221C336.262 643.984 337.465 644.101 338.638 643.573C339.753 643.104 340.604 642.136 341.19 640.67L343.996 634.647L346.734 640.67C347.379 642.136 348.259 643.104 349.374 643.573C350.488 644.101 351.661 643.984 352.893 643.221C354.125 642.576 354.859 641.667 355.093 640.494C355.269 639.379 354.917 638.147 354.037 636.798L350.779 631.802L356.501 632.222C358.026 632.339 359.258 632.017 360.197 631.254C361.136 630.55 361.605 629.494 361.605 628.086C361.605 626.679 361.136 625.593 360.197 624.831C359.258 624.127 358.026 623.833 356.501 623.951L350.832 624.315L354.125 619.375C355.005 618.084 355.357 616.852 355.181 615.679Z" fill="#3F403F"/>
<path fill-rule="evenodd" clip-rule="evenodd" d="M626.551 337.622C625.377 338.796 624.791 340.467 624.791 342.638C624.791 347.038 627.049 349.238 631.566 349.238H658.844V355.485C658.844 357.186 659.284 358.477 660.164 359.357C661.044 360.237 662.247 360.677 663.772 360.677C665.415 360.677 666.647 360.237 667.468 359.357C668.348 358.477 668.788 357.186 668.788 355.485V349.238H670.284C672.865 349.238 674.771 349.912 676.003 351.261C677.294 352.611 678.057 354.869 678.291 358.037L678.379 359.269C678.438 360.325 678.819 361.146 679.523 361.733C680.286 362.378 681.136 362.789 682.075 362.965C683.072 363.141 684.04 363.082 684.979 362.789C685.917 362.495 686.68 361.879 687.267 360.941C687.853 360.061 688.088 358.858 687.971 357.333L687.707 354.517C687.061 348.416 685.184 343.782 682.075 340.614C679.098 337.637 674.669 336.085 668.788 335.959V332.783C668.788 331.14 668.348 329.849 667.468 328.911C666.647 328.031 665.415 327.591 663.772 327.591C662.247 327.591 661.044 328.031 660.164 328.911C659.284 329.849 658.844 331.14 658.844 332.783V335.95H631.566C629.396 335.95 627.724 336.508 626.551 337.622Z" fill="#3F403F"/>
<path fill-rule="evenodd" clip-rule="evenodd" d="M583.794 194.541C583.366 196.143 583.709 197.91 584.823 199.84C585.909 201.72 587.237 202.849 588.81 203.228C590.414 203.657 592.153 203.329 594.034 202.244L608.209 194.061C610.902 192.506 613.354 192.004 615.569 192.554C617.813 193.155 619.898 194.831 621.825 197.58L622.99 199.245C624.189 200.855 625.451 201.751 626.776 201.935C628.131 202.169 629.566 201.78 631.082 200.769C632.731 199.751 633.704 198.68 634.004 197.558C634.385 196.458 634.159 195.302 633.323 194.091C631.214 190.906 628.718 188.756 625.841 187.641C623.837 186.865 621.709 186.638 619.453 186.958L620.822 186.168C622.702 185.083 623.846 183.778 624.254 182.256C624.714 180.704 624.415 179.014 623.359 177.185C622.333 175.407 621.018 174.303 619.414 173.874C617.892 173.466 616.191 173.804 614.31 174.889L587.258 190.508C585.378 191.594 584.225 192.938 583.794 194.541Z" fill="#3F403F"/>
</svg>
