<svg width="198" height="198" viewBox="0 0 198 198" fill="none" xmlns="http://www.w3.org/2000/svg">
<path d="M9.77349 103.003C9.52526 103.441 9.20215 103.698 8.80417 103.776C8.38782 103.835 7.96006 103.714 7.52088 103.412L5.27085 101.921L6.26808 101.202L6.494 103.941C6.55519 104.465 6.46097 104.892 6.21133 105.221C5.9617 105.55 5.58302 105.718 5.0753 105.724C4.56758 105.731 4.18468 105.573 3.9266 105.25C3.66852 104.928 3.55421 104.504 3.58368 103.979L3.79295 101.234L4.86216 101.872L2.57027 103.449C2.10281 103.763 1.66914 103.886 1.26928 103.819C0.869425 103.751 0.539751 103.502 0.280265 103.071C0.00264545 102.64 -0.0479624 102.234 0.128442 101.851C0.304611 101.451 0.645266 101.148 1.15041 100.942L3.31403 99.9641L3.32107 100.507L1.13317 99.6122C0.622639 99.4016 0.283313 99.1073 0.115194 98.7294C-0.0712923 98.3336 -0.031353 97.9168 0.235011 97.4789C0.501143 97.023 0.842384 96.7652 1.25873 96.7055C1.65672 96.628 2.0753 96.7403 2.51447 97.0423L4.7645 98.5336L3.76692 99.2252L3.51416 96.5135C3.45273 95.9713 3.54695 95.5448 3.79682 95.2339C4.04646 94.9049 4.42514 94.7371 4.93286 94.7305C5.44057 94.724 5.82347 94.8819 6.08155 95.2044C6.3394 95.5088 6.44464 95.9327 6.39727 96.4763L6.24205 99.1933L5.22689 98.5276L7.43753 96.9788C7.86873 96.6655 8.28426 96.5425 8.68412 96.6097C9.08374 96.6589 9.42248 96.9079 9.70034 97.3568C9.95982 97.7878 10.0195 98.1943 9.87936 98.5762C9.72109 98.9583 9.3895 99.2613 8.8846 99.485L6.66657 100.464L6.65954 99.9209L8.87533 100.87C9.38587 101.08 9.72519 101.375 9.89331 101.753C10.0614 102.13 10.0215 102.547 9.77349 103.003Z" fill="#3F403F"/>
<path d="M21.6512 79.7551C21.4144 80.5155 21.0237 81.0387 20.4789 81.3247C19.9169 81.6052 19.2548 81.6274 18.4929 81.3911L4.77717 77.1384C3.99787 76.8967 3.46498 76.5041 3.17848 75.9604C2.89736 75.3995 2.87517 74.7387 3.1119 73.9783L5.09725 67.6008C5.74289 65.5268 6.77743 64.0945 8.20085 63.3041C9.61234 62.4909 11.2532 62.3743 13.1236 62.9542C14.9939 63.5341 16.2883 64.5609 17.0069 66.0345C17.7136 67.4855 17.7441 69.2479 17.0985 71.3219L15.8475 75.3403L19.9778 76.6209C20.7398 76.8572 21.2754 77.2412 21.5846 77.7729C21.8765 78.2993 21.8987 78.96 21.6512 79.7551ZM12.1848 74.2046L13.1775 71.0158C13.4573 70.1171 13.482 69.3667 13.2517 68.7646C13.004 68.1572 12.4905 67.7327 11.7112 67.4911C10.9146 67.244 10.2505 67.3035 9.71883 67.6693C9.18719 68.035 8.78149 68.6673 8.50171 69.566L7.50903 72.7548L12.1848 74.2046Z" fill="#3F403F"/>
<path d="M34.2999 52.8371C33.4415 54.0489 32.4635 54.9436 31.3659 55.5212C30.2682 56.0988 29.1121 56.3358 27.8973 56.2323C26.6825 56.1288 25.4902 55.6644 24.3204 54.839C23.432 54.2122 22.7392 53.5128 22.2422 52.741C21.7303 51.9587 21.4185 51.1292 21.3067 50.2524C21.1801 49.3652 21.2527 48.4633 21.5244 47.5468C21.7813 46.6199 22.2342 45.6983 22.8833 44.782C23.7417 43.5702 24.7197 42.6755 25.8173 42.0979C26.9149 41.5204 28.0659 41.2907 29.2702 41.409C30.4701 41.5021 31.6624 41.9665 32.847 42.8023C33.7207 43.4187 34.4134 44.1181 34.9253 44.9003C35.4372 45.6826 35.7564 46.5173 35.883 47.4046C36.0052 48.2666 35.9327 49.1684 35.6653 50.1102C35.3936 51.0267 34.9385 51.9357 34.2999 52.8371ZM31.3902 50.7842C31.6729 50.3852 31.8279 49.9626 31.8552 49.5164C31.8677 49.0598 31.7317 48.6092 31.447 48.1646C31.158 47.6947 30.6878 47.2299 30.0362 46.7702C29.0441 46.0702 28.1973 45.7608 27.4957 45.8421C26.7793 45.9129 26.2117 46.2439 25.793 46.835C25.5103 47.234 25.3553 47.6566 25.328 48.1027C25.3006 48.5489 25.4315 49.0069 25.7204 49.4768C25.9946 49.9362 26.4649 50.401 27.1312 50.8711C28.1085 51.5607 28.9554 51.87 29.6718 51.7992C30.3882 51.7284 30.961 51.3901 31.3902 50.7842Z" fill="#3F403F"/>
<path d="M49.7824 36.5486C49.143 37.0249 48.5241 37.2262 47.9259 37.1525C47.3421 37.0679 46.8116 36.7066 46.3343 36.0685L40.9483 28.8678C40.4819 28.2441 40.2837 27.6464 40.3539 27.0747C40.4387 26.4921 40.7862 25.9735 41.3965 25.5188C42.0069 25.0641 42.5967 24.8844 43.1659 24.9798C43.7351 25.0752 44.2529 25.4347 44.7194 26.0583L45.3865 26.9503L45.1685 27.1127C44.663 26.1342 44.5183 25.1693 44.7344 24.2178C44.9651 23.2555 45.52 22.4242 46.3993 21.724C46.8099 21.3955 47.2037 21.2715 47.5807 21.352C47.9614 21.4072 48.3868 21.7339 48.857 22.3322C49.2475 22.8543 49.4477 23.3488 49.4575 23.8158C49.4673 24.2827 49.1888 24.7726 48.6218 25.2853L48.153 25.7023C47.4371 26.3486 47.0403 26.9829 46.9627 27.6054C46.8743 28.2133 47.0904 28.8653 47.6111 29.5614L50.2797 33.1291C50.757 33.7673 50.9533 34.3776 50.8686 34.9602C50.7839 35.5428 50.4218 36.0722 49.7824 36.5486Z" fill="#3F403F"/>
<path d="M76.3403 22.8546C75.0524 23.2907 73.9206 23.4541 72.9452 23.3448C71.9868 23.2297 71.1676 22.8478 70.4875 22.199C69.8015 21.533 69.2546 20.6002 68.8467 19.4005L67.4222 15.2101L66.5464 15.5066C65.9968 15.6927 65.518 15.6924 65.1098 15.5057C64.7188 15.3132 64.4301 14.9427 64.2437 14.3943C64.0572 13.8458 64.0634 13.3851 64.2621 13.012C64.4721 12.616 64.8519 12.325 65.4015 12.1389L66.2773 11.8423L65.7355 10.2484C65.4791 9.49434 65.4814 8.85333 65.7424 8.32541C66.0033 7.79748 66.503 7.4085 67.2415 7.15847C67.9799 6.90843 68.6136 6.91364 69.1426 7.17409C69.6716 7.43454 70.0642 7.94182 70.3206 8.69592L70.8624 10.2898L72.9747 9.57459C73.5414 9.38271 74.0203 9.38302 74.4112 9.57553C74.8136 9.74508 75.108 10.1041 75.2944 10.6525C75.4809 11.2009 75.469 11.6732 75.259 12.0692C75.0661 12.4594 74.6863 12.7504 74.1196 12.9423L72.0073 13.6575L73.3794 17.6937C73.595 18.3278 73.9012 18.7497 74.298 18.9593C74.7062 19.146 75.2365 19.1289 75.8891 18.9079C76.1295 18.8265 76.3526 18.7223 76.5584 18.5953C76.7642 18.4683 76.9615 18.3728 77.1504 18.3089C77.4193 18.1987 77.6717 18.2088 77.9075 18.3392C78.1375 18.4524 78.3603 18.8261 78.5759 19.4602C78.7507 19.9744 78.822 20.4376 78.7898 20.8498C78.7517 21.2449 78.5614 21.5865 78.2189 21.8745C78.0076 22.0416 77.7046 22.2206 77.31 22.4116C76.9211 22.6197 76.5979 22.7673 76.3403 22.8546Z" fill="#3F403F"/>
<path d="M97.8905 19.5793C97.1108 19.5894 96.5097 19.389 96.0872 18.9781C95.6648 18.5673 95.4484 17.9637 95.4381 17.1675L95.3396 9.5669L94.6324 9.57603C94.0522 9.58352 93.5969 9.43555 93.2665 9.13212C92.9542 8.82845 92.7944 8.38707 92.7869 7.80798C92.7794 7.22889 92.9279 6.79258 93.2324 6.49905C93.5548 6.1872 94.0061 6.02753 94.5863 6.02004L96.6807 5.99301L95.3101 7.28673L95.3002 6.52667C95.2742 4.51794 95.7534 3.00949 96.7378 2.0013C97.7401 0.974785 99.2373 0.349126 101.229 0.124323L102.017 0.032708C102.596 -0.0471668 103.06 0.0192525 103.407 0.231966C103.754 0.426583 103.993 0.694991 104.125 1.03719C104.256 1.36129 104.288 1.70477 104.22 2.06764C104.17 2.43028 104.038 2.73968 103.824 2.99584C103.609 3.252 103.321 3.40052 102.959 3.44139L102.578 3.47345C101.655 3.55777 101.013 3.76514 100.655 4.09556C100.297 4.42598 100.122 4.90788 100.13 5.54126L100.141 6.43704L99.5366 5.95616L101.685 5.92843C102.284 5.92071 102.739 6.06868 103.051 6.37234C103.363 6.65791 103.523 7.09024 103.531 7.66933C103.538 8.24842 103.39 8.69378 103.085 9.0054C102.781 9.31702 102.33 9.47669 101.731 9.48441L100.181 9.50442L100.28 17.105C100.301 18.7337 99.5043 19.5585 97.8905 19.5793Z" fill="#3F403F"/>
<path d="M122.998 23.3243C121.578 22.884 120.423 22.2322 119.533 21.3689C118.644 20.5055 118.061 19.4814 117.784 18.2964C117.507 17.1114 117.581 15.8362 118.006 14.4708C118.329 13.4338 118.782 12.5602 119.363 11.8499C119.951 11.1223 120.645 10.57 121.446 10.193C122.252 9.79867 123.134 9.58884 124.091 9.56351C125.054 9.52089 126.072 9.66604 127.146 9.99895C128.566 10.4393 129.721 11.0911 130.611 11.9544C131.5 12.8177 132.075 13.8392 132.334 15.0188C132.616 16.1865 132.542 17.4617 132.112 18.8444C131.794 19.8641 131.342 20.7377 130.755 21.4653C130.167 22.1929 129.47 22.7538 128.664 23.1482C127.88 23.5306 126.999 23.7404 126.018 23.7776C125.061 23.803 124.054 23.6519 122.998 23.3243ZM124.055 19.9282C124.523 20.0731 124.973 20.0897 125.407 19.9778C125.846 19.8486 126.233 19.5802 126.569 19.1726C126.927 18.7531 127.225 18.1631 127.462 17.4026C127.822 16.2447 127.855 15.3453 127.561 14.7044C127.272 14.0463 126.782 13.6099 126.089 13.3951C125.621 13.2501 125.171 13.2336 124.737 13.3455C124.303 13.4574 123.907 13.7231 123.549 14.1426C123.196 14.5449 122.898 15.1348 122.656 15.9126C122.301 17.0533 122.268 17.9527 122.557 18.6108C122.846 19.2689 123.345 19.708 124.055 19.9282ZM129.301 8.93302C128.962 9.16895 128.611 9.25914 128.248 9.20359C127.908 9.13614 127.616 8.97899 127.37 8.73216C127.129 8.46804 126.985 8.1676 126.938 7.83083C126.914 7.48214 127.047 7.14453 127.339 6.818L130.127 3.90158C130.464 3.55122 130.824 3.36925 131.208 3.35566C131.592 3.34207 131.941 3.44082 132.255 3.65191C132.587 3.86837 132.842 4.1465 133.021 4.48629C133.217 4.83145 133.288 5.18492 133.232 5.54669C133.194 5.91384 132.979 6.23592 132.589 6.51296L129.301 8.93302Z" fill="#3F403F"/>
<path d="M146.698 35.447C145.276 34.4441 144.492 33.3254 144.345 32.0912C144.223 30.8526 144.706 29.4648 145.795 27.9279L152.515 18.4404C152.976 17.7902 153.497 17.4153 154.078 17.3157C154.66 17.2161 155.261 17.3857 155.883 17.8245C156.52 18.2737 156.888 18.7884 156.988 19.3686C157.103 19.9593 156.93 20.5797 156.469 21.2299L149.842 30.5844C149.455 31.1312 149.276 31.6033 149.305 32.0008C149.35 32.4088 149.542 32.7329 149.883 32.9732C149.986 33.0463 150.095 33.1121 150.209 33.1704C150.349 33.2245 150.49 33.2911 150.634 33.3703C150.886 33.5479 151.003 33.7746 150.985 34.0503C150.982 34.3364 150.771 34.7751 150.353 35.3662C149.986 35.8834 149.605 36.2019 149.21 36.3216C148.824 36.4266 148.391 36.3645 147.909 36.1354C147.78 36.0666 147.594 35.9687 147.351 35.8415C147.108 35.7143 146.89 35.5829 146.698 35.447Z" fill="#3F403F"/>
<path d="M163.014 51.8037C162.559 51.1945 162.388 50.5879 162.502 49.9836C162.616 49.3794 163.014 48.8229 163.697 48.314L170.585 43.1824C171.268 42.6736 171.916 42.4506 172.529 42.5135C173.142 42.5764 173.676 42.9124 174.131 43.5216C174.598 44.1452 174.774 44.7591 174.66 45.3633C174.557 45.9821 174.164 46.5459 173.481 47.0547L166.593 52.1863C165.91 52.6952 165.262 52.9181 164.65 52.8552C164.037 52.7923 163.492 52.4418 163.014 51.8037ZM175.679 42.3686C175.169 41.6869 174.933 41.0385 174.971 40.4232C175.019 39.8225 175.349 39.2948 175.959 38.8401C176.555 38.3962 177.148 38.2364 177.739 38.3608C178.341 38.4997 178.897 38.91 179.406 39.5916C179.938 40.3023 180.18 40.958 180.131 41.5587C180.083 42.1595 179.76 42.6818 179.165 43.1257C178.554 43.5804 177.954 43.7455 177.363 43.6211C176.772 43.4967 176.211 43.0792 175.679 42.3686Z" fill="#3F403F"/>
<path d="M174.451 73.8949C173.973 72.4895 173.823 71.174 174 69.9482C174.176 68.7225 174.664 67.6497 175.462 66.7297C176.26 65.8098 177.337 65.1201 178.694 64.6607C179.724 64.3119 180.698 64.1636 181.616 64.2159C182.551 64.2625 183.407 64.4983 184.183 64.9234C184.977 65.3427 185.665 65.9314 186.249 66.6894C186.849 67.4417 187.33 68.3491 187.691 69.4117C188.169 70.8171 188.319 72.1326 188.142 73.3583C187.965 74.584 187.475 75.6483 186.671 76.5511C185.89 77.4653 184.813 78.155 183.439 78.6201C182.426 78.9632 181.452 79.1115 180.517 79.0649C179.582 79.0184 178.718 78.7855 177.924 78.3662C177.153 77.9583 176.465 77.3696 175.859 76.6002C175.275 75.8421 174.806 74.9403 174.451 73.8949ZM177.825 72.7523C177.983 73.215 178.234 73.5885 178.58 73.8729C178.942 74.1514 179.388 74.3064 179.915 74.3379C180.466 74.3808 181.119 74.2743 181.875 74.0184C183.026 73.6288 183.774 73.1269 184.121 72.5127C184.484 71.8926 184.55 71.2399 184.317 70.5543C184.159 70.0916 183.908 69.718 183.562 69.4337C183.217 69.1494 182.768 68.9858 182.218 68.943C181.684 68.8943 181.031 69.0008 180.258 69.2625C179.125 69.6462 178.376 70.1481 178.012 70.7682C177.649 71.3882 177.586 72.0496 177.825 72.7523Z" fill="#3F403F"/>
<path d="M188.227 94.9972C188.475 94.5596 188.798 94.302 189.196 94.2245C189.612 94.1648 190.04 94.286 190.479 94.588L192.729 96.0793L191.732 96.7981L191.506 94.0589C191.445 93.5348 191.539 93.1082 191.789 92.7792C192.038 92.4502 192.417 92.2824 192.925 92.2759C193.432 92.2693 193.815 92.4273 194.073 92.7497C194.331 93.0722 194.446 93.4961 194.416 94.0213L194.207 96.7662L193.138 96.1284L195.43 94.5513C195.897 94.2375 196.331 94.1143 196.731 94.1815C197.131 94.2488 197.46 94.4979 197.72 94.9289C197.997 95.3598 198.048 95.7663 197.872 96.1487C197.695 96.5492 197.355 96.8522 196.85 97.0578L194.686 98.036L194.679 97.4931L196.867 98.3879C197.377 98.5985 197.717 98.8928 197.885 99.2707C198.071 99.6665 198.031 100.083 197.765 100.521C197.499 100.977 197.158 101.235 196.741 101.295C196.343 101.372 195.925 101.26 195.486 100.958L193.236 99.4665L194.233 98.7749L194.486 101.487C194.547 102.029 194.453 102.455 194.203 102.766C193.954 103.095 193.575 103.263 193.067 103.27C192.559 103.276 192.177 103.118 191.918 102.796C191.661 102.491 191.555 102.067 191.603 101.524L191.758 98.8068L192.773 99.4725L190.562 101.021C190.131 101.335 189.716 101.458 189.316 101.39C188.916 101.341 188.578 101.092 188.3 100.643C188.04 100.212 187.981 99.8058 188.121 99.4239C188.279 99.0418 188.611 98.7388 189.115 98.5151L191.333 97.5363L191.34 98.0792L189.125 97.1304C188.614 96.9198 188.275 96.6255 188.107 96.2476C187.939 95.8697 187.979 95.4529 188.227 94.9972Z" fill="#3F403F"/>
<path d="M176.349 118.245C176.585 117.485 176.976 116.961 177.521 116.675C178.083 116.395 178.745 116.373 179.507 116.609L193.223 120.862C194.002 121.103 194.535 121.496 194.821 122.04C195.102 122.601 195.125 123.261 194.888 124.022L192.903 130.399C192.257 132.473 191.222 133.906 189.799 134.696C188.387 135.509 186.747 135.626 184.876 135.046C183.006 134.466 181.711 133.439 180.993 131.966C180.286 130.515 180.256 128.752 180.901 126.678L182.152 122.66L178.022 121.379C177.26 121.143 176.724 120.759 176.415 120.227C176.123 119.701 176.101 119.04 176.349 118.245ZM185.815 123.796L184.822 126.984C184.543 127.883 184.518 128.633 184.748 129.236C184.996 129.843 185.509 130.267 186.289 130.509C187.085 130.756 187.749 130.697 188.281 130.331C188.813 129.965 189.218 129.333 189.498 128.434L190.491 125.245L185.815 123.796Z" fill="#3F403F"/>
<path d="M163.7 145.163C164.558 143.951 165.536 143.056 166.634 142.479C167.732 141.901 168.888 141.664 170.102 141.768C171.317 141.871 172.51 142.336 173.679 143.161C174.568 143.788 175.261 144.487 175.758 145.259C176.269 146.041 176.581 146.871 176.693 147.748C176.82 148.635 176.747 149.537 176.475 150.453C176.219 151.38 175.766 152.302 175.117 153.218C174.258 154.43 173.28 155.324 172.182 155.902C171.085 156.48 169.934 156.709 168.73 156.591C167.53 156.498 166.337 156.033 165.153 155.198C164.279 154.581 163.586 153.882 163.074 153.1C162.563 152.317 162.243 151.483 162.117 150.595C161.995 149.733 162.067 148.832 162.334 147.89C162.606 146.973 163.061 146.064 163.7 145.163ZM166.61 147.216C166.327 147.615 166.172 148.037 166.145 148.484C166.132 148.94 166.268 149.391 166.553 149.835C166.842 150.305 167.312 150.77 167.964 151.23C168.956 151.93 169.803 152.239 170.504 152.158C171.221 152.087 171.788 151.756 172.207 151.165C172.489 150.766 172.644 150.343 172.672 149.897C172.699 149.451 172.568 148.993 172.279 148.523C172.005 148.064 171.535 147.599 170.869 147.129C169.891 146.439 169.044 146.13 168.328 146.201C167.612 146.272 167.039 146.61 166.61 147.216Z" fill="#3F403F"/>
<path d="M148.217 161.451C148.856 160.975 149.475 160.774 150.074 160.847C150.657 160.932 151.188 161.293 151.665 161.932L157.051 169.132C157.518 169.756 157.716 170.354 157.646 170.925C157.561 171.508 157.213 172.027 156.603 172.481C155.993 172.936 155.403 173.116 154.834 173.02C154.264 172.925 153.747 172.565 153.28 171.942L152.613 171.05L152.831 170.887C153.337 171.866 153.481 172.831 153.265 173.782C153.034 174.745 152.479 175.576 151.6 176.276C151.19 176.604 150.796 176.728 150.419 176.648C150.038 176.593 149.613 176.266 149.143 175.668C148.752 175.146 148.552 174.651 148.542 174.184C148.532 173.717 148.811 173.227 149.378 172.715L149.846 172.298C150.562 171.651 150.959 171.017 151.037 170.395C151.125 169.787 150.909 169.135 150.388 168.439L147.72 164.871C147.242 164.233 147.046 163.622 147.131 163.04C147.216 162.457 147.578 161.928 148.217 161.451Z" fill="#3F403F"/>
<path d="M121.659 175.145C122.947 174.709 124.079 174.546 125.055 174.655C126.013 174.77 126.832 175.152 127.512 175.801C128.198 176.467 128.745 177.4 129.153 178.599L130.578 182.79L131.453 182.493C132.003 182.307 132.482 182.308 132.89 182.494C133.281 182.687 133.57 183.057 133.756 183.606C133.942 184.154 133.936 184.615 133.738 184.988C133.528 185.384 133.148 185.675 132.598 185.861L131.722 186.158L132.264 187.752C132.521 188.506 132.518 189.147 132.257 189.675C131.996 190.202 131.497 190.591 130.758 190.841C130.02 191.092 129.386 191.086 128.857 190.826C128.328 190.565 127.935 190.058 127.679 189.304L127.137 187.71L125.025 188.425C124.458 188.617 123.979 188.617 123.588 188.424C123.186 188.255 122.892 187.896 122.705 187.347C122.519 186.799 122.531 186.327 122.741 185.931C122.934 185.541 123.313 185.25 123.88 185.058L125.992 184.342L124.62 180.306C124.405 179.672 124.098 179.25 123.702 179.041C123.294 178.854 122.763 178.871 122.111 179.092C121.87 179.173 121.647 179.278 121.441 179.405C121.236 179.532 121.038 179.627 120.849 179.691C120.58 179.801 120.328 179.791 120.092 179.661C119.862 179.548 119.639 179.174 119.424 178.54C119.249 178.026 119.178 177.562 119.21 177.15C119.248 176.755 119.438 176.413 119.781 176.125C119.992 175.958 120.295 175.779 120.69 175.588C121.079 175.38 121.402 175.233 121.659 175.145Z" fill="#3F403F"/>
<path d="M100.109 178.421C100.889 178.411 101.49 178.611 101.912 179.022C102.335 179.433 102.551 180.036 102.562 180.833L102.66 188.433L103.367 188.424C103.948 188.416 104.403 188.564 104.733 188.868C105.045 189.172 105.205 189.613 105.213 190.192C105.22 190.771 105.072 191.207 104.767 191.501C104.445 191.813 103.994 191.972 103.413 191.98L101.319 192.007L102.69 190.713L102.699 191.473C102.725 193.482 102.246 194.991 101.262 195.999C100.26 197.025 98.7624 197.651 96.7704 197.876L95.9827 197.967C95.4034 198.047 94.94 197.981 94.5927 197.768C94.2456 197.573 94.0063 197.305 93.875 196.963C93.7438 196.639 93.7122 196.295 93.78 195.932C93.8297 195.57 93.9617 195.26 94.176 195.004C94.3903 194.748 94.6786 194.599 95.0408 194.559L95.4212 194.527C96.3451 194.442 96.9862 194.235 97.3446 193.904C97.7031 193.574 97.8782 193.092 97.87 192.459L97.8584 191.563L98.4631 192.044L96.3143 192.072C95.716 192.079 95.2606 191.931 94.9484 191.628C94.6364 191.342 94.4766 190.91 94.4691 190.331C94.4616 189.752 94.61 189.306 94.9143 188.995C95.2186 188.683 95.6699 188.523 96.2683 188.516L97.8186 188.496L97.7201 180.895C97.699 179.266 98.4954 178.442 100.109 178.421Z" fill="#3F403F"/>
<path d="M75.002 174.676C76.4221 175.116 77.5769 175.768 78.4665 176.631C79.3561 177.495 79.9393 178.519 80.216 179.704C80.4928 180.889 80.4186 182.164 79.9936 183.529C79.6708 184.566 79.2184 185.44 78.6365 186.15C78.0492 186.878 77.355 187.43 76.554 187.807C75.7477 188.201 74.8658 188.411 73.9084 188.437C72.9457 188.479 71.9275 188.334 70.8538 188.001C69.4337 187.561 68.2789 186.909 67.3893 186.046C66.4997 185.182 65.9252 184.161 65.6658 182.981C65.3837 181.814 65.4578 180.538 65.8882 179.156C66.2057 178.136 66.658 177.262 67.2453 176.535C67.8326 175.807 68.5295 175.246 69.3358 174.852C70.1195 174.47 71.0014 174.26 71.9814 174.222C72.9388 174.197 73.9457 174.348 75.002 174.676ZM73.9448 178.072C73.4772 177.927 73.0266 177.91 72.593 178.022C72.154 178.152 71.7666 178.42 71.4309 178.828C71.0724 179.247 70.7748 179.837 70.5381 180.597C70.1776 181.755 70.1445 182.655 70.4387 183.296C70.7275 183.954 71.2183 184.39 71.911 184.605C72.3786 184.75 72.8292 184.767 73.2628 184.655C73.6964 184.543 74.0925 184.277 74.451 183.857C74.804 183.455 75.1016 182.865 75.3438 182.088C75.6989 180.947 75.732 180.047 75.4431 179.389C75.1543 178.731 74.6548 178.292 73.9448 178.072ZM68.699 189.067C69.0383 188.831 69.3892 188.741 69.7517 188.797C70.0915 188.864 70.3844 189.021 70.6303 189.268C70.8709 189.532 71.0148 189.833 71.0619 190.169C71.0862 190.518 70.9526 190.856 70.6611 191.182L67.8733 194.099C67.5363 194.449 67.1758 194.631 66.7918 194.644C66.4078 194.658 66.0588 194.559 65.7447 194.348C65.4133 194.132 65.1581 193.854 64.979 193.514C64.7826 193.169 64.7123 192.815 64.7679 192.453C64.8063 192.086 65.0205 191.764 65.4105 191.487L68.699 189.067Z" fill="#3F403F"/>
<path d="M51.3019 162.553C52.7234 163.556 53.5078 164.675 53.655 165.909C53.777 167.147 53.2936 168.535 52.2049 170.072L45.4841 179.56C45.0235 180.21 44.5025 180.585 43.9212 180.684C43.3398 180.784 42.7382 180.614 42.1163 180.176C41.4796 179.726 41.1113 179.212 41.0115 178.631C40.8969 178.041 41.0699 177.42 41.5305 176.77L48.1571 167.416C48.5444 166.869 48.7234 166.397 48.6941 165.999C48.6499 165.591 48.4576 165.267 48.117 165.027C48.0133 164.954 47.9045 164.888 47.7903 164.83C47.6509 164.776 47.5094 164.709 47.3656 164.63C47.1139 164.452 46.9968 164.225 47.0145 163.95C47.0173 163.664 47.2281 163.225 47.6468 162.634C48.0132 162.117 48.3943 161.798 48.79 161.678C49.1753 161.573 49.6088 161.636 50.0906 161.865C50.2195 161.933 50.4055 162.031 50.6485 162.159C50.8916 162.286 51.1094 162.417 51.3019 162.553Z" fill="#3F403F"/>
<path d="M34.9852 146.196C35.4409 146.806 35.6118 147.412 35.498 148.016C35.3842 148.621 34.9858 149.177 34.3028 149.686L27.4146 154.818C26.7316 155.327 26.0837 155.549 25.4709 155.487C24.8581 155.424 24.3239 155.088 23.8683 154.479C23.4019 153.855 23.2255 153.241 23.3393 152.637C23.4423 152.018 23.8352 151.454 24.5182 150.945L31.4064 145.814C32.0894 145.305 32.7373 145.082 33.3501 145.145C33.9629 145.208 34.5079 145.558 34.9852 146.196ZM22.3207 155.632C22.8305 156.313 23.0666 156.962 23.029 157.577C22.9804 158.178 22.651 158.705 22.0407 159.16C21.4449 159.604 20.8515 159.764 20.2606 159.639C19.6589 159.5 19.1031 159.09 18.5932 158.408C18.0617 157.698 17.8202 157.042 17.8687 156.441C17.9172 155.841 18.2393 155.318 18.8351 154.874C19.4455 154.42 20.0461 154.255 20.637 154.379C21.2279 154.503 21.7891 154.921 22.3207 155.632Z" fill="#3F403F"/>
<path d="M23.5489 124.105C24.0267 125.511 24.1771 126.826 24.0001 128.052C23.8232 129.278 23.3357 130.35 22.5378 131.27C21.7399 132.19 20.6626 132.88 19.3059 133.339C18.2755 133.688 17.3014 133.837 16.3836 133.784C15.4486 133.738 14.5929 133.502 13.8164 133.077C13.0228 132.657 12.3344 132.069 11.7511 131.311C11.1507 130.558 10.6699 129.651 10.3086 128.588C9.83087 127.183 9.68047 125.867 9.85742 124.642C10.0344 123.416 10.5247 122.352 11.3285 121.449C12.1092 120.535 13.1865 119.845 14.5604 119.38C15.5736 119.037 16.5477 118.889 17.4827 118.935C18.4177 118.982 19.282 119.215 20.0756 119.634C20.8462 120.042 21.5347 120.631 22.1409 121.4C22.7242 122.158 23.1935 123.06 23.5489 124.105ZM20.1744 125.248C20.0171 124.785 19.7657 124.412 19.4201 124.127C19.0573 123.849 18.612 123.694 18.0843 123.662C17.5335 123.619 16.8803 123.726 16.1247 123.982C14.9742 124.371 14.2256 124.873 13.8791 125.487C13.5154 126.107 13.45 126.76 13.6831 127.446C13.8404 127.909 14.0919 128.282 14.4375 128.566C14.7831 128.851 15.2312 129.014 15.782 129.057C16.3156 129.106 16.9688 128.999 17.7415 128.738C18.875 128.354 19.6235 127.852 19.9872 127.232C20.3509 126.612 20.4133 125.951 20.1744 125.248Z" fill="#3F403F"/>
<path d="M116.635 35.2875C151.892 45.0074 172.579 81.412 162.84 116.599C153.1 151.787 116.623 172.432 81.3653 162.712C46.1075 152.993 25.4207 116.588 35.1601 81.4005C44.8994 46.2131 81.3768 25.5676 116.635 35.2875Z" fill="#008170"/>
</svg>
