<svg width="364" height="94" viewBox="0 0 364 94" fill="none" xmlns="http://www.w3.org/2000/svg">
<path d="M10.6 91.6C9.93333 91.6 9.4 91.4 9 91C8.66667 90.6 8.5 90.0667 8.5 89.4V26.2C8.5 25.4667 8.66667 24.9333 9 24.6C9.4 24.2 9.93333 24 10.6 24C11.2667 24 11.7667 24.2 12.1 24.6C12.5 24.9333 12.7 25.4667 12.7 26.2V37.2H11.6C12.7333 33.0667 14.9 29.8 18.1 27.4C21.3667 25 25.3333 23.8 30 23.8C34.4 23.8 38.2 24.8333 41.4 26.9C44.6 28.9 47.0667 31.7667 48.8 35.5C50.6 39.2333 51.5 43.6667 51.5 48.8C51.5 53.8667 50.6333 58.3 48.9 62.1C47.1667 65.8333 44.6667 68.7333 41.4 70.8C38.2 72.8 34.4 73.8 30 73.8C25.3333 73.8 21.3667 72.6 18.1 70.2C14.9 67.7333 12.7333 64.4667 11.6 60.4H12.7V89.4C12.7 90.0667 12.5 90.6 12.1 91C11.7667 91.4 11.2667 91.6 10.6 91.6ZM29.9 69.9C33.4333 69.9 36.5 69.0667 39.1 67.4C41.7 65.7333 43.7 63.3333 45.1 60.2C46.5 57 47.2 53.2 47.2 48.8C47.2 42.1333 45.6333 36.9667 42.5 33.3C39.4333 29.5667 35.2333 27.7 29.9 27.7C26.3667 27.7 23.3 28.5333 20.7 30.2C18.1 31.8667 16.1 34.2667 14.7 37.4C13.3 40.5333 12.6 44.3333 12.6 48.8C12.6 55.4667 14.1667 60.6667 17.3 64.4C20.4333 68.0667 24.6333 69.9 29.9 69.9ZM67.4359 73.6C66.7693 73.6 66.2359 73.4 65.8359 73C65.5026 72.6 65.3359 72.0667 65.3359 71.4V26.2C65.3359 25.4667 65.5026 24.9333 65.8359 24.6C66.2359 24.2 66.7693 24 67.4359 24C68.1026 24 68.6026 24.2 68.9359 24.6C69.2693 24.9333 69.4359 25.4667 69.4359 26.2V35.9H68.4359C69.7026 31.9667 71.9359 28.9333 75.1359 26.8C78.4026 24.6667 82.1693 23.6 86.4359 23.6C87.0359 23.6 87.5359 23.7333 87.9359 24C88.4026 24.2 88.6359 24.6333 88.6359 25.3C88.6359 25.9667 88.4693 26.5 88.1359 26.9C87.8026 27.2333 87.2359 27.4333 86.4359 27.5L85.2359 27.6C80.3026 28.0667 76.4359 29.7333 73.6359 32.6C70.9026 35.4667 69.5359 39.2667 69.5359 44V71.4C69.5359 72.0667 69.3693 72.6 69.0359 73C68.7026 73.4 68.1693 73.6 67.4359 73.6Z" fill="#3F403F"/>
<circle cx="286" cy="49" r="25" fill="#008170"/>
<circle cx="120" cy="49" r="25" fill="#008170"/>
<path d="M146.4 93.2C145.8 93.2 145.333 93.0667 145 92.8C144.6 92.6 144.333 92.3 144.2 91.9C144.067 91.5 144.033 91.1 144.1 90.7C144.167 90.3667 144.367 90.0667 144.7 89.8C145.033 89.5333 145.5 89.4 146.1 89.4C150.367 89.2667 153.533 88.1667 155.6 86.1C157.733 84.1 158.8 80.8 158.8 76.2V27.2C158.8 26.4667 158.967 25.9333 159.3 25.6C159.7 25.2 160.233 25 160.9 25C161.567 25 162.067 25.2 162.4 25.6C162.8 25.9333 163 26.4667 163 27.2V76.1C163 79.9667 162.3 83.1667 160.9 85.7C159.567 88.2333 157.667 90.1 155.2 91.3C152.733 92.5667 149.8 93.2 146.4 93.2ZM160.9 12.4C159.833 12.4 158.967 12.1 158.3 11.5C157.7 10.8333 157.4 9.96666 157.4 8.9C157.4 7.76666 157.7 6.93333 158.3 6.39999C158.967 5.79999 159.833 5.49999 160.9 5.49999C162.033 5.49999 162.9 5.79999 163.5 6.39999C164.1 6.93333 164.4 7.76666 164.4 8.9C164.4 9.96666 164.1 10.8333 163.5 11.5C162.9 12.1 162.033 12.4 160.9 12.4ZM200.084 74.8C195.284 74.8 191.151 73.8 187.684 71.8C184.218 69.8 181.518 66.9667 179.584 63.3C177.718 59.5667 176.784 55.1333 176.784 50C176.784 44.9333 177.718 40.5333 179.584 36.8C181.518 33 184.151 30.0667 187.484 28C190.884 25.8667 194.784 24.8 199.184 24.8C202.318 24.8 205.084 25.3333 207.484 26.4C209.951 27.4667 212.018 29 213.684 31C215.418 33 216.718 35.4333 217.584 38.3C218.518 41.1667 218.984 44.4 218.984 48C218.984 48.8667 218.784 49.5333 218.384 50C218.051 50.4 217.518 50.6 216.784 50.6H179.484V46.9H216.784L215.084 48.1C215.084 44.0333 214.484 40.5667 213.284 37.7C212.084 34.7667 210.284 32.5333 207.884 31C205.551 29.4 202.618 28.6 199.084 28.6C195.218 28.6 191.918 29.5333 189.184 31.4C186.518 33.2 184.484 35.6667 183.084 38.8C181.751 41.9333 181.084 45.5 181.084 49.5V50C181.084 56.6667 182.718 61.8333 185.984 65.5C189.318 69.1 193.951 70.9 199.884 70.9C202.551 70.9 205.051 70.5667 207.384 69.9C209.718 69.1667 212.018 67.9 214.284 66.1C214.751 65.7 215.218 65.5 215.684 65.5C216.218 65.4333 216.651 65.5333 216.984 65.8C217.384 66 217.651 66.3 217.784 66.7C217.984 67.0333 218.018 67.4333 217.884 67.9C217.751 68.3667 217.418 68.8 216.884 69.2C214.818 70.9333 212.284 72.3 209.284 73.3C206.284 74.3 203.218 74.8 200.084 74.8ZM249.426 74.8C246.092 74.8 243.292 74.1667 241.026 72.9C238.759 71.5667 237.059 69.7 235.926 67.3C234.792 64.8333 234.226 61.8667 234.226 58.4V29.2H226.126C225.459 29.2 224.926 29.0333 224.526 28.7C224.126 28.3667 223.926 27.9333 223.926 27.4C223.926 26.8667 224.126 26.4333 224.526 26.1C224.926 25.7667 225.459 25.6 226.126 25.6H234.226V12.1C234.226 11.3667 234.392 10.8333 234.726 10.5C235.126 10.1 235.659 9.9 236.326 9.9C236.992 9.9 237.492 10.1 237.826 10.5C238.226 10.8333 238.426 11.3667 238.426 12.1V25.6H252.726C253.459 25.6 253.992 25.7667 254.326 26.1C254.726 26.4333 254.926 26.8667 254.926 27.4C254.926 27.9333 254.726 28.3667 254.326 28.7C253.992 29.0333 253.459 29.2 252.726 29.2H238.426V57.5C238.426 61.8333 239.292 65.1667 241.026 67.5C242.759 69.7667 245.659 70.9 249.726 70.9C251.126 70.9 252.259 70.7667 253.126 70.5C254.059 70.1667 254.826 70 255.426 70C255.826 70 256.159 70.1667 256.426 70.5C256.759 70.8333 256.926 71.3 256.926 71.9C256.926 72.2333 256.826 72.6 256.626 73C256.492 73.3333 256.192 73.5667 255.726 73.7C255.059 73.9667 254.092 74.2 252.826 74.4C251.626 74.6667 250.492 74.8 249.426 74.8Z" fill="#3F403F"/>
<path d="M339.6 73.8C336.533 73.8 333.567 73.3667 330.7 72.5C327.833 71.6333 325.033 70.1667 322.3 68.1C321.967 67.8333 321.733 67.5 321.6 67.1C321.533 66.7 321.533 66.3 321.6 65.9C321.733 65.5 321.933 65.1667 322.2 64.9C322.533 64.5667 322.9 64.4 323.3 64.4C323.767 64.4 324.233 64.5667 324.7 64.9C327.233 66.7667 329.767 68.0667 332.3 68.8C334.833 69.5333 337.367 69.9 339.9 69.9C344.233 69.9 347.533 69.0667 349.8 67.4C352.133 65.7333 353.3 63.4667 353.3 60.6C353.3 58.3333 352.533 56.5667 351 55.3C349.533 53.9667 347.133 52.9 343.8 52.1L335.5 50.1C331.3 49.1 328.2 47.5667 326.2 45.5C324.267 43.4333 323.3 40.7667 323.3 37.5C323.3 34.7667 324 32.3667 325.4 30.3C326.867 28.2333 328.9 26.6333 331.5 25.5C334.167 24.3667 337.233 23.8 340.7 23.8C343.633 23.8 346.433 24.2667 349.1 25.2C351.833 26.1333 354.133 27.5333 356 29.4C356.4 29.8 356.633 30.2333 356.7 30.7C356.833 31.1 356.833 31.5 356.7 31.9C356.567 32.3 356.333 32.6 356 32.8C355.667 33 355.267 33.1 354.8 33.1C354.4 33.0333 353.967 32.8 353.5 32.4C351.633 30.8 349.6 29.6333 347.4 28.9C345.2 28.1 342.933 27.7 340.6 27.7C336.533 27.7 333.367 28.6 331.1 30.4C328.833 32.1333 327.7 34.4667 327.7 37.4C327.7 39.6667 328.4 41.5 329.8 42.9C331.2 44.3 333.433 45.3667 336.5 46.1L344.8 48.1C349.133 49.1667 352.367 50.6667 354.5 52.6C356.633 54.5333 357.7 57.1333 357.7 60.4C357.7 64.4667 356.067 67.7333 352.8 70.2C349.533 72.6 345.133 73.8 339.6 73.8Z" fill="#3F403F"/>
</svg>
