<svg width="465" height="46" viewBox="0 0 465 46" fill="none" xmlns="http://www.w3.org/2000/svg">
<path d="M173.5 45.4C171.733 45.4 170 45.15 168.3 44.65C166.633 44.15 165.117 43.3667 163.75 42.3C163.583 42.1667 163.467 42 163.4 41.8C163.367 41.6 163.383 41.4 163.45 41.2C163.517 41.0333 163.617 40.8667 163.75 40.7C163.917 40.5667 164.083 40.4833 164.25 40.45C164.45 40.45 164.65 40.5167 164.85 40.65C166.317 41.6833 167.717 42.4 169.05 42.8C170.417 43.2333 171.917 43.45 173.55 43.45C176.05 43.45 177.95 42.7333 179.25 41.3C180.55 39.9 181.2 37.8833 181.2 35.25V28.6H181.7C181.233 30.7333 180.167 32.4167 178.5 33.65C176.833 34.85 174.85 35.45 172.55 35.45C170.317 35.45 168.383 34.95 166.75 33.95C165.117 32.9167 163.85 31.5 162.95 29.7C162.083 27.8667 161.65 25.7667 161.65 23.4C161.65 21.6 161.9 19.9667 162.4 18.5C162.9 17.0333 163.617 15.7833 164.55 14.75C165.517 13.6833 166.667 12.8667 168 12.3C169.333 11.7 170.85 11.4 172.55 11.4C174.85 11.4 176.833 12.0167 178.5 13.25C180.167 14.45 181.233 16.1167 181.7 18.25H181.15V12.6C181.15 12.2333 181.233 11.9667 181.4 11.8C181.6 11.6 181.867 11.5 182.2 11.5C182.533 11.5 182.783 11.6 182.95 11.8C183.15 11.9667 183.25 12.2333 183.25 12.6V34.9C183.25 38.3667 182.433 40.9833 180.8 42.75C179.167 44.5167 176.733 45.4 173.5 45.4ZM172.5 33.5C174.3 33.5 175.85 33.0833 177.15 32.25C178.45 31.4167 179.45 30.25 180.15 28.75C180.85 27.2167 181.2 25.4333 181.2 23.4C181.2 20.3333 180.417 17.9 178.85 16.1C177.283 14.2667 175.167 13.35 172.5 13.35C170.733 13.35 169.183 13.7667 167.85 14.6C166.55 15.4 165.55 16.55 164.85 18.05C164.15 19.55 163.8 21.3333 163.8 23.4C163.8 26.4667 164.583 28.9167 166.15 30.75C167.717 32.5833 169.833 33.5 172.5 33.5ZM192.816 36.15C192.482 36.15 192.216 36.05 192.016 35.85C191.849 35.65 191.766 35.3833 191.766 35.05V12.75C191.766 12.3833 191.849 12.1167 192.016 11.95C192.216 11.75 192.482 11.65 192.816 11.65C193.149 11.65 193.399 11.75 193.566 11.95C193.766 12.1167 193.866 12.3833 193.866 12.75V35.05C193.866 35.3833 193.782 35.65 193.616 35.85C193.449 36.05 193.182 36.15 192.816 36.15ZM192.816 5.2C192.282 5.2 191.849 5.05 191.516 4.75C191.216 4.41666 191.066 3.98333 191.066 3.45C191.066 2.88333 191.216 2.46666 191.516 2.2C191.849 1.9 192.282 1.75 192.816 1.75C193.382 1.75 193.816 1.9 194.116 2.2C194.416 2.46666 194.566 2.88333 194.566 3.45C194.566 3.98333 194.416 4.41666 194.116 4.75C193.816 5.05 193.382 5.2 192.816 5.2ZM209.661 36.4C208.095 36.4 206.678 36.0833 205.411 35.45C204.145 34.8167 203.145 33.9667 202.411 32.9C201.678 31.8 201.311 30.5833 201.311 29.25C201.311 27.45 201.745 26.05 202.611 25.05C203.511 24.0167 205.028 23.3 207.161 22.9C209.328 22.4667 212.295 22.25 216.061 22.25H218.111V24.1H216.161C212.861 24.1 210.295 24.25 208.461 24.55C206.661 24.8167 205.395 25.3167 204.661 26.05C203.961 26.75 203.611 27.75 203.611 29.05C203.611 30.65 204.161 31.9667 205.261 33C206.395 34 207.911 34.5 209.811 34.5C211.345 34.5 212.678 34.1333 213.811 33.4C214.978 32.6333 215.895 31.6167 216.561 30.35C217.228 29.05 217.561 27.5833 217.561 25.95V20.25C217.561 17.85 217.095 16.1 216.161 15C215.228 13.9 213.728 13.35 211.661 13.35C210.328 13.35 209.045 13.5333 207.811 13.9C206.611 14.2667 205.345 14.8333 204.011 15.6C203.711 15.7667 203.445 15.8333 203.211 15.8C203.011 15.7667 202.845 15.6833 202.711 15.55C202.578 15.3833 202.478 15.2 202.411 15C202.378 14.7667 202.395 14.55 202.461 14.35C202.561 14.15 202.728 13.9833 202.961 13.85C204.328 13.0167 205.745 12.4 207.211 12C208.678 11.6 210.128 11.4 211.561 11.4C213.395 11.4 214.911 11.7167 216.111 12.35C217.311 12.9833 218.195 13.95 218.761 15.25C219.361 16.55 219.661 18.2167 219.661 20.25V35.2C219.661 35.5333 219.578 35.8 219.411 36C219.245 36.2 218.995 36.3 218.661 36.3C218.328 36.3 218.061 36.2 217.861 36C217.695 35.8 217.611 35.5333 217.611 35.2V29.95H218.161C217.828 31.2833 217.261 32.4333 216.461 33.4C215.661 34.3667 214.678 35.1167 213.511 35.65C212.378 36.15 211.095 36.4 209.661 36.4ZM235.595 36.4C234.062 36.4 232.578 36.1833 231.145 35.75C229.712 35.3167 228.312 34.5833 226.945 33.55C226.778 33.4167 226.662 33.25 226.595 33.05C226.562 32.85 226.562 32.65 226.595 32.45C226.662 32.25 226.762 32.0833 226.895 31.95C227.062 31.7833 227.245 31.7 227.445 31.7C227.678 31.7 227.912 31.7833 228.145 31.95C229.412 32.8833 230.678 33.5333 231.945 33.9C233.212 34.2667 234.478 34.45 235.745 34.45C237.912 34.45 239.562 34.0333 240.695 33.2C241.862 32.3667 242.445 31.2333 242.445 29.8C242.445 28.6667 242.062 27.7833 241.295 27.15C240.562 26.4833 239.362 25.95 237.695 25.55L233.545 24.55C231.445 24.05 229.895 23.2833 228.895 22.25C227.928 21.2167 227.445 19.8833 227.445 18.25C227.445 16.8833 227.795 15.6833 228.495 14.65C229.228 13.6167 230.245 12.8167 231.545 12.25C232.878 11.6833 234.412 11.4 236.145 11.4C237.612 11.4 239.012 11.6333 240.345 12.1C241.712 12.5667 242.862 13.2667 243.795 14.2C243.995 14.4 244.112 14.6167 244.145 14.85C244.212 15.05 244.212 15.25 244.145 15.45C244.078 15.65 243.962 15.8 243.795 15.9C243.628 16 243.428 16.05 243.195 16.05C242.995 16.0167 242.778 15.9 242.545 15.7C241.612 14.9 240.595 14.3167 239.495 13.95C238.395 13.55 237.262 13.35 236.095 13.35C234.062 13.35 232.478 13.8 231.345 14.7C230.212 15.5667 229.645 16.7333 229.645 18.2C229.645 19.3333 229.995 20.25 230.695 20.95C231.395 21.65 232.512 22.1833 234.045 22.55L238.195 23.55C240.362 24.0833 241.978 24.8333 243.045 25.8C244.112 26.7667 244.645 28.0667 244.645 29.7C244.645 31.7333 243.828 33.3667 242.195 34.6C240.562 35.8 238.362 36.4 235.595 36.4ZM272.53 36.4C270.63 36.4 269.047 36.05 267.78 35.35C266.513 34.65 265.563 33.6167 264.93 32.25C264.297 30.8833 263.98 29.1833 263.98 27.15V12.6C263.98 12.2333 264.063 11.9667 264.23 11.8C264.43 11.6 264.697 11.5 265.03 11.5C265.363 11.5 265.613 11.6 265.78 11.8C265.98 11.9667 266.08 12.2333 266.08 12.6V26.95C266.08 29.4833 266.597 31.3667 267.63 32.6C268.663 33.8333 270.297 34.45 272.53 34.45C274.963 34.45 276.93 33.65 278.43 32.05C279.963 30.4167 280.73 28.2833 280.73 25.65V12.6C280.73 12.2333 280.813 11.9667 280.98 11.8C281.18 11.6 281.447 11.5 281.78 11.5C282.113 11.5 282.363 11.6 282.53 11.8C282.73 11.9667 282.83 12.2333 282.83 12.6V35.2C282.83 35.9333 282.497 36.3 281.83 36.3C281.497 36.3 281.23 36.2 281.03 36C280.863 35.8 280.78 35.5333 280.78 35.2V29.95H281.38C280.747 32.05 279.63 33.65 278.03 34.75C276.43 35.85 274.597 36.4 272.53 36.4ZM299.826 36.4C298.16 36.4 296.76 36.0833 295.626 35.45C294.493 34.7833 293.643 33.85 293.076 32.65C292.51 31.4167 292.226 29.9333 292.226 28.2V13.6H288.176C287.843 13.6 287.576 13.5167 287.376 13.35C287.176 13.1833 287.076 12.9667 287.076 12.7C287.076 12.4333 287.176 12.2167 287.376 12.05C287.576 11.8833 287.843 11.8 288.176 11.8H292.226V5.05C292.226 4.68333 292.31 4.41666 292.476 4.25C292.676 4.05 292.943 3.95 293.276 3.95C293.61 3.95 293.86 4.05 294.026 4.25C294.226 4.41666 294.326 4.68333 294.326 5.05V11.8H301.476C301.843 11.8 302.11 11.8833 302.276 12.05C302.476 12.2167 302.576 12.4333 302.576 12.7C302.576 12.9667 302.476 13.1833 302.276 13.35C302.11 13.5167 301.843 13.6 301.476 13.6H294.326V27.75C294.326 29.9167 294.76 31.5833 295.626 32.75C296.493 33.8833 297.943 34.45 299.976 34.45C300.676 34.45 301.243 34.3833 301.676 34.25C302.143 34.0833 302.526 34 302.826 34C303.026 34 303.193 34.0833 303.326 34.25C303.493 34.4167 303.576 34.65 303.576 34.95C303.576 35.1167 303.526 35.3 303.426 35.5C303.36 35.6667 303.21 35.7833 302.976 35.85C302.643 35.9833 302.16 36.1 301.526 36.2C300.926 36.3333 300.36 36.4 299.826 36.4ZM308.392 36.15C308.058 36.15 307.792 36.05 307.592 35.85C307.425 35.65 307.342 35.3833 307.342 35.05V12.75C307.342 12.3833 307.425 12.1167 307.592 11.95C307.792 11.75 308.058 11.65 308.392 11.65C308.725 11.65 308.975 11.75 309.142 11.95C309.342 12.1167 309.442 12.3833 309.442 12.75V35.05C309.442 35.3833 309.358 35.65 309.192 35.85C309.025 36.05 308.758 36.15 308.392 36.15ZM308.392 5.2C307.858 5.2 307.425 5.05 307.092 4.75C306.792 4.41666 306.642 3.98333 306.642 3.45C306.642 2.88333 306.792 2.46666 307.092 2.2C307.425 1.9 307.858 1.75 308.392 1.75C308.958 1.75 309.392 1.9 309.692 2.2C309.992 2.46666 310.142 2.88333 310.142 3.45C310.142 3.98333 309.992 4.41666 309.692 4.75C309.392 5.05 308.958 5.2 308.392 5.2ZM324.538 36.4C322.438 36.4 320.804 35.7333 319.638 34.4C318.504 33.0333 317.938 31.1333 317.938 28.7V1.55C317.938 1.18333 318.021 0.916664 318.188 0.749998C318.388 0.549998 318.654 0.449999 318.988 0.449999C319.321 0.449999 319.571 0.549998 319.738 0.749998C319.938 0.916664 320.038 1.18333 320.038 1.55V28.35C320.038 30.3833 320.438 31.9167 321.238 32.95C322.038 33.95 323.204 34.45 324.738 34.45C325.071 34.45 325.354 34.4333 325.588 34.4C325.821 34.3667 326.054 34.35 326.288 34.35C326.554 34.35 326.754 34.4 326.887 34.5C327.054 34.6 327.138 34.8 327.138 35.1C327.138 35.4667 327.038 35.7333 326.838 35.9C326.638 36.0667 326.304 36.2 325.838 36.3C325.604 36.3333 325.371 36.35 325.138 36.35C324.938 36.3833 324.738 36.4 324.538 36.4ZM332.757 36.15C332.424 36.15 332.157 36.05 331.957 35.85C331.79 35.65 331.707 35.3833 331.707 35.05V12.75C331.707 12.3833 331.79 12.1167 331.957 11.95C332.157 11.75 332.424 11.65 332.757 11.65C333.09 11.65 333.34 11.75 333.507 11.95C333.707 12.1167 333.807 12.3833 333.807 12.75V35.05C333.807 35.3833 333.724 35.65 333.557 35.85C333.39 36.05 333.124 36.15 332.757 36.15ZM332.757 5.2C332.224 5.2 331.79 5.05 331.457 4.75C331.157 4.41666 331.007 3.98333 331.007 3.45C331.007 2.88333 331.157 2.46666 331.457 2.2C331.79 1.9 332.224 1.75 332.757 1.75C333.324 1.75 333.757 1.9 334.057 2.2C334.357 2.46666 334.507 2.88333 334.507 3.45C334.507 3.98333 334.357 4.41666 334.057 4.75C333.757 5.05 333.324 5.2 332.757 5.2ZM341.903 36C341.636 36 341.419 35.95 341.253 35.85C341.119 35.75 341.019 35.6167 340.953 35.45C340.886 35.25 340.886 35.0333 340.953 34.8C341.019 34.5667 341.153 34.3333 341.353 34.1L356.503 12.95V13.6H341.703C341.403 13.6 341.169 13.5167 341.003 13.35C340.836 13.1833 340.753 12.9667 340.753 12.7C340.753 12.4333 340.836 12.2167 341.003 12.05C341.169 11.8833 341.403 11.8 341.703 11.8H357.553C357.853 11.8 358.086 11.85 358.253 11.95C358.453 12.05 358.586 12.1833 358.653 12.35C358.719 12.5167 358.719 12.7167 358.653 12.95C358.619 13.15 358.519 13.3667 358.353 13.6L343.053 34.9V34.2H358.453C359.086 34.2 359.403 34.5 359.403 35.1C359.403 35.3667 359.319 35.5833 359.153 35.75C358.986 35.9167 358.753 36 358.453 36H341.903ZM372.064 36.4C370.497 36.4 369.08 36.0833 367.814 35.45C366.547 34.8167 365.547 33.9667 364.814 32.9C364.08 31.8 363.714 30.5833 363.714 29.25C363.714 27.45 364.147 26.05 365.014 25.05C365.914 24.0167 367.43 23.3 369.564 22.9C371.73 22.4667 374.697 22.25 378.464 22.25H380.514V24.1H378.564C375.264 24.1 372.697 24.25 370.864 24.55C369.064 24.8167 367.797 25.3167 367.064 26.05C366.364 26.75 366.014 27.75 366.014 29.05C366.014 30.65 366.564 31.9667 367.664 33C368.797 34 370.314 34.5 372.214 34.5C373.747 34.5 375.08 34.1333 376.214 33.4C377.38 32.6333 378.297 31.6167 378.964 30.35C379.63 29.05 379.964 27.5833 379.964 25.95V20.25C379.964 17.85 379.497 16.1 378.564 15C377.63 13.9 376.13 13.35 374.064 13.35C372.73 13.35 371.447 13.5333 370.214 13.9C369.014 14.2667 367.747 14.8333 366.414 15.6C366.114 15.7667 365.847 15.8333 365.614 15.8C365.414 15.7667 365.247 15.6833 365.114 15.55C364.98 15.3833 364.88 15.2 364.814 15C364.78 14.7667 364.797 14.55 364.864 14.35C364.964 14.15 365.13 13.9833 365.364 13.85C366.73 13.0167 368.147 12.4 369.614 12C371.08 11.6 372.53 11.4 373.964 11.4C375.797 11.4 377.314 11.7167 378.514 12.35C379.714 12.9833 380.597 13.95 381.164 15.25C381.764 16.55 382.064 18.2167 382.064 20.25V35.2C382.064 35.5333 381.98 35.8 381.814 36C381.647 36.2 381.397 36.3 381.064 36.3C380.73 36.3 380.464 36.2 380.264 36C380.097 35.8 380.014 35.5333 380.014 35.2V29.95H380.564C380.23 31.2833 379.664 32.4333 378.864 33.4C378.064 34.3667 377.08 35.1167 375.914 35.65C374.78 36.15 373.497 36.4 372.064 36.4ZM399.597 36.4C397.431 36.4 395.531 35.9 393.897 34.9C392.297 33.8667 391.047 32.4167 390.147 30.55C389.281 28.65 388.847 26.4333 388.847 23.9C388.847 21.3333 389.281 19.1167 390.147 17.25C391.014 15.3833 392.247 13.95 393.847 12.95C395.481 11.9167 397.397 11.4 399.597 11.4C401.931 11.4 403.914 12 405.547 13.2C407.181 14.4 408.264 16.0333 408.797 18.1H408.247V1.55C408.247 1.18333 408.331 0.916664 408.497 0.749998C408.697 0.549998 408.964 0.449999 409.297 0.449999C409.631 0.449999 409.881 0.549998 410.047 0.749998C410.247 0.916664 410.347 1.18333 410.347 1.55V35.2C410.347 35.5333 410.247 35.8 410.047 36C409.881 36.2 409.631 36.3 409.297 36.3C408.964 36.3 408.697 36.2 408.497 36C408.331 35.8 408.247 35.5333 408.247 35.2V29.7H408.797C408.264 31.7333 407.181 33.3667 405.547 34.6C403.914 35.8 401.931 36.4 399.597 36.4ZM399.647 34.45C401.414 34.45 402.947 34.0333 404.247 33.2C405.547 32.3667 406.547 31.1667 407.247 29.6C407.947 28 408.297 26.1 408.297 23.9C408.297 20.5667 407.514 17.9833 405.947 16.15C404.414 14.2833 402.314 13.35 399.647 13.35C397.881 13.35 396.347 13.7667 395.047 14.6C393.747 15.4333 392.747 16.6333 392.047 18.2C391.347 19.7667 390.997 21.6667 390.997 23.9C390.997 27.2333 391.781 29.8333 393.347 31.7C394.914 33.5333 397.014 34.45 399.647 34.45ZM426.165 36.4C424.599 36.4 423.182 36.0833 421.915 35.45C420.649 34.8167 419.649 33.9667 418.915 32.9C418.182 31.8 417.815 30.5833 417.815 29.25C417.815 27.45 418.249 26.05 419.115 25.05C420.015 24.0167 421.532 23.3 423.665 22.9C425.832 22.4667 428.799 22.25 432.565 22.25H434.615V24.1H432.665C429.365 24.1 426.799 24.25 424.965 24.55C423.165 24.8167 421.899 25.3167 421.165 26.05C420.465 26.75 420.115 27.75 420.115 29.05C420.115 30.65 420.665 31.9667 421.765 33C422.899 34 424.415 34.5 426.315 34.5C427.849 34.5 429.182 34.1333 430.315 33.4C431.482 32.6333 432.399 31.6167 433.065 30.35C433.732 29.05 434.065 27.5833 434.065 25.95V20.25C434.065 17.85 433.599 16.1 432.665 15C431.732 13.9 430.232 13.35 428.165 13.35C426.832 13.35 425.549 13.5333 424.315 13.9C423.115 14.2667 421.849 14.8333 420.515 15.6C420.215 15.7667 419.949 15.8333 419.715 15.8C419.515 15.7667 419.349 15.6833 419.215 15.55C419.082 15.3833 418.982 15.2 418.915 15C418.882 14.7667 418.899 14.55 418.965 14.35C419.065 14.15 419.232 13.9833 419.465 13.85C420.832 13.0167 422.249 12.4 423.715 12C425.182 11.6 426.632 11.4 428.065 11.4C429.899 11.4 431.415 11.7167 432.615 12.35C433.815 12.9833 434.699 13.95 435.265 15.25C435.865 16.55 436.165 18.2167 436.165 20.25V35.2C436.165 35.5333 436.082 35.8 435.915 36C435.749 36.2 435.499 36.3 435.165 36.3C434.832 36.3 434.565 36.2 434.365 36C434.199 35.8 434.115 35.5333 434.115 35.2V29.95H434.665C434.332 31.2833 433.765 32.4333 432.965 33.4C432.165 34.3667 431.182 35.1167 430.015 35.65C428.882 36.15 427.599 36.4 426.165 36.4ZM452.099 36.4C450.565 36.4 449.082 36.1833 447.649 35.75C446.215 35.3167 444.815 34.5833 443.449 33.55C443.282 33.4167 443.165 33.25 443.099 33.05C443.065 32.85 443.065 32.65 443.099 32.45C443.165 32.25 443.265 32.0833 443.399 31.95C443.565 31.7833 443.749 31.7 443.949 31.7C444.182 31.7 444.415 31.7833 444.649 31.95C445.915 32.8833 447.182 33.5333 448.449 33.9C449.715 34.2667 450.982 34.45 452.249 34.45C454.415 34.45 456.065 34.0333 457.199 33.2C458.365 32.3667 458.949 31.2333 458.949 29.8C458.949 28.6667 458.565 27.7833 457.799 27.15C457.065 26.4833 455.865 25.95 454.199 25.55L450.049 24.55C447.949 24.05 446.399 23.2833 445.399 22.25C444.432 21.2167 443.949 19.8833 443.949 18.25C443.949 16.8833 444.299 15.6833 444.999 14.65C445.732 13.6167 446.749 12.8167 448.049 12.25C449.382 11.6833 450.915 11.4 452.649 11.4C454.115 11.4 455.515 11.6333 456.849 12.1C458.215 12.5667 459.365 13.2667 460.299 14.2C460.499 14.4 460.615 14.6167 460.649 14.85C460.715 15.05 460.715 15.25 460.649 15.45C460.582 15.65 460.465 15.8 460.299 15.9C460.132 16 459.932 16.05 459.699 16.05C459.499 16.0167 459.282 15.9 459.049 15.7C458.115 14.9 457.099 14.3167 455.999 13.95C454.899 13.55 453.765 13.35 452.599 13.35C450.565 13.35 448.982 13.8 447.849 14.7C446.715 15.5667 446.149 16.7333 446.149 18.2C446.149 19.3333 446.499 20.25 447.199 20.95C447.899 21.65 449.015 22.1833 450.549 22.55L454.699 23.55C456.865 24.0833 458.482 24.8333 459.549 25.8C460.615 26.7667 461.149 28.0667 461.149 29.7C461.149 31.7333 460.332 33.3667 458.699 34.6C457.065 35.8 454.865 36.4 452.099 36.4Z" fill="white"/>
<path d="M129.85 36.4C127.75 36.4 126.117 35.7333 124.95 34.4C123.817 33.0333 123.25 31.1333 123.25 28.7V1.55C123.25 1.18333 123.333 0.916664 123.5 0.749998C123.7 0.549998 123.967 0.449999 124.3 0.449999C124.633 0.449999 124.883 0.549998 125.05 0.749998C125.25 0.916664 125.35 1.18333 125.35 1.55V28.35C125.35 30.3833 125.75 31.9167 126.55 32.95C127.35 33.95 128.517 34.45 130.05 34.45C130.383 34.45 130.667 34.4333 130.9 34.4C131.133 34.3667 131.367 34.35 131.6 34.35C131.867 34.35 132.067 34.4 132.2 34.5C132.367 34.6 132.45 34.8 132.45 35.1C132.45 35.4667 132.35 35.7333 132.15 35.9C131.95 36.0667 131.617 36.2 131.15 36.3C130.917 36.3333 130.683 36.35 130.45 36.35C130.25 36.3833 130.05 36.4 129.85 36.4Z" fill="white"/>
<path d="M12.75 36.4C11.0833 36.4 9.68333 36.0833 8.55 35.45C7.41667 34.7833 6.56667 33.85 6 32.65C5.43333 31.4167 5.15 29.9333 5.15 28.2V13.6H1.1C0.766667 13.6 0.5 13.5167 0.3 13.35C0.1 13.1833 0 12.9667 0 12.7C0 12.4333 0.1 12.2167 0.3 12.05C0.5 11.8833 0.766667 11.8 1.1 11.8H5.15V5.05C5.15 4.68333 5.23333 4.41666 5.4 4.25C5.6 4.05 5.86667 3.95 6.2 3.95C6.53333 3.95 6.78333 4.05 6.95 4.25C7.15 4.41666 7.25 4.68333 7.25 5.05V11.8H14.4C14.7667 11.8 15.0333 11.8833 15.2 12.05C15.4 12.2167 15.5 12.4333 15.5 12.7C15.5 12.9667 15.4 13.1833 15.2 13.35C15.0333 13.5167 14.7667 13.6 14.4 13.6H7.25V27.75C7.25 29.9167 7.68333 31.5833 8.55 32.75C9.41667 33.8833 10.8667 34.45 12.9 34.45C13.6 34.45 14.1667 34.3833 14.6 34.25C15.0667 34.0833 15.45 34 15.75 34C15.95 34 16.1167 34.0833 16.25 34.25C16.4167 34.4167 16.5 34.65 16.5 34.95C16.5 35.1167 16.45 35.3 16.35 35.5C16.2833 35.6667 16.1333 35.7833 15.9 35.85C15.5667 35.9833 15.0833 36.1 14.45 36.2C13.85 36.3333 13.2833 36.4 12.75 36.4ZM30.0715 36.4C27.6715 36.4 25.6048 35.9 23.8715 34.9C22.1382 33.9 20.7882 32.4833 19.8215 30.65C18.8882 28.7833 18.4215 26.5667 18.4215 24C18.4215 21.4667 18.8882 19.2667 19.8215 17.4C20.7882 15.5 22.1048 14.0333 23.7715 13C25.4715 11.9333 27.4215 11.4 29.6215 11.4C31.1882 11.4 32.5715 11.6667 33.7715 12.2C35.0048 12.7333 36.0382 13.5 36.8715 14.5C37.7382 15.5 38.3882 16.7167 38.8215 18.15C39.2882 19.5833 39.5215 21.2 39.5215 23C39.5215 23.4333 39.4215 23.7667 39.2215 24C39.0548 24.2 38.7882 24.3 38.4215 24.3H19.7715V22.45H38.4215L37.5715 23.05C37.5715 21.0167 37.2715 19.2833 36.6715 17.85C36.0715 16.3833 35.1715 15.2667 33.9715 14.5C32.8048 13.7 31.3382 13.3 29.5715 13.3C27.6382 13.3 25.9882 13.7667 24.6215 14.7C23.2882 15.6 22.2715 16.8333 21.5715 18.4C20.9048 19.9667 20.5715 21.75 20.5715 23.75V24C20.5715 27.3333 21.3882 29.9167 23.0215 31.75C24.6882 33.55 27.0048 34.45 29.9715 34.45C31.3048 34.45 32.5548 34.2833 33.7215 33.95C34.8882 33.5833 36.0382 32.95 37.1715 32.05C37.4048 31.85 37.6382 31.75 37.8715 31.75C38.1382 31.7167 38.3548 31.7667 38.5215 31.9C38.7215 32 38.8548 32.15 38.9215 32.35C39.0215 32.5167 39.0382 32.7167 38.9715 32.95C38.9048 33.1833 38.7382 33.4 38.4715 33.6C37.4382 34.4667 36.1715 35.15 34.6715 35.65C33.1715 36.15 31.6382 36.4 30.0715 36.4ZM55.6434 36.4C53.3434 36.4 51.36 35.8667 49.6934 34.8C48.06 33.7333 46.7934 32.25 45.8934 30.35C45.0267 28.45 44.5934 26.2333 44.5934 23.7C44.5934 21.8 44.8434 20.1 45.3434 18.6C45.8434 17.0667 46.56 15.7667 47.4934 14.7C48.46 13.6333 49.6267 12.8167 50.9934 12.25C52.36 11.6833 53.91 11.4 55.6434 11.4C56.91 11.4 58.1934 11.6333 59.4934 12.1C60.8267 12.5333 62.01 13.2667 63.0434 14.3C63.21 14.4667 63.2934 14.65 63.2934 14.85C63.3267 15.05 63.2934 15.25 63.1934 15.45C63.1267 15.6167 63.01 15.75 62.8434 15.85C62.6767 15.95 62.4767 16 62.2434 16C62.01 15.9667 61.7767 15.8333 61.5434 15.6C60.5767 14.7333 59.5767 14.15 58.5434 13.85C57.5434 13.5167 56.56 13.35 55.5934 13.35C54.16 13.35 52.8934 13.5833 51.7934 14.05C50.6934 14.5167 49.76 15.2 48.9934 16.1C48.26 16.9667 47.6934 18.05 47.2934 19.35C46.9267 20.6167 46.7434 22.0833 46.7434 23.75C46.7434 27.0833 47.51 29.7 49.0434 31.6C50.5767 33.5 52.76 34.45 55.5934 34.45C56.56 34.45 57.5434 34.3 58.5434 34C59.5767 33.6667 60.5767 33.0667 61.5434 32.2C61.7767 31.9667 62.01 31.85 62.2434 31.85C62.4767 31.8167 62.6767 31.85 62.8434 31.95C63.01 32.05 63.1267 32.2 63.1934 32.4C63.2934 32.5667 63.3267 32.75 63.2934 32.95C63.2934 33.15 63.21 33.3333 63.0434 33.5C62.01 34.5333 60.8267 35.2833 59.4934 35.75C58.1934 36.1833 56.91 36.4 55.6434 36.4ZM69.9973 36.3C69.6639 36.3 69.3973 36.2 69.1973 36C69.0306 35.8 68.9473 35.5333 68.9473 35.2V12.6C68.9473 12.2333 69.0306 11.9667 69.1973 11.8C69.3973 11.6 69.6639 11.5 69.9973 11.5C70.3306 11.5 70.5806 11.6 70.7473 11.8C70.9139 11.9667 70.9973 12.2333 70.9973 12.6V17.7H70.4473C71.1139 15.6 72.2639 14.0333 73.8973 13C75.5306 11.9333 77.4139 11.4 79.5473 11.4C81.4806 11.4 83.0806 11.7333 84.3473 12.4C85.6473 13.0667 86.6139 14.0833 87.2473 15.45C87.8806 16.8167 88.1973 18.5333 88.1973 20.6V35.2C88.1973 35.5333 88.0973 35.8 87.8973 36C87.7306 36.2 87.4806 36.3 87.1473 36.3C86.8139 36.3 86.5473 36.2 86.3473 36C86.1806 35.8 86.0973 35.5333 86.0973 35.2V20.8C86.0973 18.2333 85.5806 16.35 84.5473 15.15C83.5139 13.95 81.8473 13.35 79.5473 13.35C76.9806 13.35 74.9139 14.15 73.3473 15.75C71.8139 17.3167 71.0473 19.4333 71.0473 22.1V35.2C71.0473 35.9333 70.6973 36.3 69.9973 36.3Z" fill="white"/>
<circle cx="106" cy="24" r="13" fill="#646664"/>
<circle cx="146" cy="24" r="13" fill="#646664"/>
</svg>
